<?xml version="1.0" encoding="UTF-8"?>
<svg version="1.1" xmlns="http://www.w3.org/2000/svg" width="2048" height="2048">
<path d="M0 0 C675.84 0 1351.68 0 2048 0 C2048 675.84 2048 1351.68 2048 2048 C1372.16 2048 696.32 2048 0 2048 C0 1372.16 0 696.32 0 0 Z " fill="#000000" transform="translate(0,0)"/>
<path d="M0 0 C2.88658275 1.3084161 4.95322821 2.70341003 7.19006062 4.94117165 C7.79981875 5.54633098 8.40957688 6.15149032 9.03781253 6.77498782 C9.69841133 7.44073018 10.35901013 8.10647254 11.03962708 8.79238892 C12.10315235 9.85229257 12.10315235 9.85229257 13.18816298 10.93360841 C15.56878583 13.30858425 17.94217775 15.69065729 20.31567383 18.07275391 C22.01874789 19.77475529 23.72225475 21.47632369 25.42616272 23.17749023 C29.5773885 27.32436526 33.72394483 31.47587354 37.86836723 35.62954505 C42.6986711 40.47023973 47.53420469 45.30569608 52.3699493 50.14095454 C61.00343703 58.77394151 69.63208362 67.4117511 78.25805664 76.05224609 C86.61870018 84.42695755 94.98281769 92.79817874 103.35083008 101.16552734 C103.86555859 101.6802159 104.38028711 102.19490446 104.91061345 102.72518964 C105.68139812 103.49591377 105.68139812 103.49591377 106.46775419 104.28220809 C116.0021501 113.81591266 125.53324556 123.35291079 135.06282375 132.89143086 C138.42715398 136.25876917 141.79245235 139.62513807 145.15806007 142.99119949 C149.69704881 147.53094485 154.23321962 152.07349448 158.76756859 156.61787415 C160.42954215 158.28275995 162.09235245 159.94681097 163.756073 161.60995102 C166.03284664 163.88623101 168.30650604 166.16557814 170.579422 168.44570923 C171.23332863 169.09806726 171.88723527 169.75042529 172.56095725 170.42255175 C176.32233958 174.20357258 179.87905184 178.10631063 183.36660129 182.14063394 C185.62598777 184.71258805 188.01382985 187.13660422 190.43540955 189.55566406 C190.93550036 190.0566093 191.43559116 190.55755453 191.95083624 191.07367992 C193.59890145 192.72337007 195.25047358 194.36950049 196.90209961 196.015625 C198.09545021 197.20869305 199.28857971 198.40198228 200.48150635 199.59547424 C203.69982902 202.81408226 206.921212 206.0296111 210.14317775 209.24457169 C213.51754564 212.61266218 216.88905678 215.98360992 220.26087952 219.35424805 C226.63705614 225.72732425 233.01577621 232.09784837 239.39542729 238.46744633 C246.66224812 245.72306591 253.92620876 252.98154612 261.18993747 260.24026108 C276.12345772 275.16334613 291.06054367 290.08285771 306 305 C304.47962543 308.58771015 302.37228653 310.86320011 299.61470032 313.59216309 C298.69336304 314.5090239 297.77202576 315.4258847 296.82276917 316.37052917 C295.79899229 317.3792546 294.77514027 318.38790379 293.7512207 319.39648438 C292.67496028 320.46399374 291.59917648 321.53198382 290.52383423 322.60041809 C288.20910391 324.89866772 285.89145231 327.19391631 283.57161903 329.48701477 C279.90626937 333.11101702 276.25014741 336.7442317 272.5957489 340.37927246 C262.20354457 350.71387874 251.80136693 361.03837442 241.38452148 371.34814453 C235.63021036 377.04346459 229.88482374 382.74763163 224.14916295 388.46173525 C220.51596989 392.08025479 216.87195206 395.68739635 213.21970141 399.2866745 C210.95453457 401.52418191 208.69984468 403.77201559 206.4480629 406.02298546 C205.39902347 407.06744072 204.34566077 408.10757359 203.28779793 409.1430912 C201.84857389 410.55312274 200.42594663 411.98003643 199.00434875 413.40783691 C198.20222112 414.20275795 197.40009348 414.99767899 196.57365894 415.81668854 C194.76731823 417.84083828 194.76731823 417.84083828 195.11702824 420.13218307 C196.51048255 423.07986233 198.64981931 424.99840843 200.95947266 427.28417969 C201.47506744 427.79860626 201.99066223 428.31303284 202.5218811 428.8430481 C204.2290793 430.54305696 205.9465496 432.23229313 207.6640625 433.921875 C208.85728432 435.1069547 210.04976838 436.29277766 211.24154663 437.47930908 C214.38563709 440.60626909 217.53817066 443.72457053 220.69299316 446.84069824 C225.72287654 451.81147008 230.74036371 456.79474242 235.75696945 461.77890778 C237.50168138 463.50979019 239.25023268 465.2367158 240.99942017 466.96307373 C246.04793722 471.95874639 251.02857318 476.96189844 255.61386108 482.39483643 C257.0184379 484.02135128 258.39257286 485.57146908 260 487 C263.51164983 486.81144623 265.24983792 485.11529047 267.64453125 482.68359375 C268.32193359 482.00103516 268.99933594 481.31847656 269.69726562 480.61523438 C270.74430664 479.53725586 270.74430664 479.53725586 271.8125 478.4375 C272.84213867 477.40012695 272.84213867 477.40012695 273.89257812 476.34179688 C277.91434451 472.25915229 281.75502532 468.06664106 285.46362305 463.69750977 C287.73592469 461.18689268 290.40131851 459.16556791 293 457 C294.09102175 455.79274194 295.16052015 454.5658447 296.21327209 453.32507324 C299.83767195 449.13640464 303.661681 445.20362505 307.58764648 441.29882812 C308.31043289 440.57589569 309.0332193 439.85296326 309.77790833 439.10812378 C312.13993791 436.7467844 314.50547713 434.38899535 316.87109375 432.03125 C318.52040633 430.38380478 320.16949657 428.73613694 321.81837463 427.08825684 C326.13811672 422.77231493 330.46085453 418.45938583 334.78424072 414.14709473 C339.20369041 409.73791314 343.62027598 405.32586464 348.03710938 400.9140625 C356.68861856 392.27324651 365.34329788 383.63561329 374 375 C376.96766675 376.33639148 379.05243551 377.802099 381.35017014 380.09848785 C381.99559572 380.73869794 382.6410213 381.37890803 383.30600524 382.03851843 C384.00639741 382.74337204 384.70678958 383.44822566 385.42840576 384.17443848 C386.17911354 384.92202628 386.92982132 385.66961408 387.70327783 386.43985605 C390.22461807 388.95320097 392.73872812 391.47365608 395.25292969 393.99414062 C397.05603734 395.79453915 398.85957039 397.59451171 400.66349792 399.39408875 C405.0570998 403.7795055 409.4459795 408.16959978 413.83259121 412.56200731 C417.39623612 416.13016605 420.96182476 419.69637148 424.52881622 423.26118469 C425.03616537 423.76822737 425.54351452 424.27527005 426.06623788 424.79767767 C427.09683827 425.82763862 428.12744315 426.85759507 429.15805247 427.88754708 C438.82328092 437.54707141 448.48236752 447.21271861 458.13937023 456.88046557 C466.43270529 465.18274161 474.73127779 473.47975224 483.03369141 481.77294922 C492.66956349 491.39812942 502.30219723 501.02653135 511.92965055 510.66013288 C512.9552451 511.68636456 513.98084385 512.71259205 515.00644684 513.73881531 C515.51109907 514.24377609 516.01575129 514.74873687 516.53569601 515.26899949 C520.09908784 518.8341211 523.66480128 522.3969106 527.23140717 525.95881653 C532.02623974 530.7474695 536.81576689 535.54136665 541.60170937 540.33890724 C543.36410114 542.10395495 545.1282182 543.86728182 546.89413261 545.62880516 C549.29389873 548.02315129 551.68749066 550.42349861 554.07952881 552.82556152 C554.78884387 553.53041514 555.49815893 554.23526875 556.22896838 554.96148157 C556.86396298 555.60169166 557.49895757 556.24190175 558.15319443 556.90151215 C558.7069367 557.45557912 559.26067897 558.0096461 559.83120131 558.58050299 C561 560 561 560 561 562 C561.5775 562.2475 562.155 562.495 562.75 562.75 C565.32939979 564.18299988 567.06121592 565.78424676 569 568 C569 568.66 569 569.32 569 570 C569.84256348 570.35578125 569.84256348 570.35578125 570.70214844 570.71875 C573.52582658 572.29319357 575.47614842 574.21684545 577.765625 576.5 C579.09980469 577.8303125 579.09980469 577.8303125 580.4609375 579.1875 C581.84152344 580.5796875 581.84152344 580.5796875 583.25 582 C584.18585938 582.928125 585.12171875 583.85625 586.0859375 584.8125 C586.97023438 585.699375 587.85453125 586.58625 588.765625 587.5 C589.57805664 588.3146875 590.39048828 589.129375 591.22753906 589.96875 C593 592 593 592 593 594 C593.58978764 594.26474813 594.17957527 594.52949627 594.78723526 594.80226707 C597.07708694 596.04172589 598.57146689 597.32496841 600.40423584 599.16372681 C601.38431862 600.13968559 601.38431862 600.13968559 602.38420105 601.13536072 C603.08982681 601.84817703 603.79545258 602.56099335 604.52246094 603.29541016 C605.6498745 604.42238564 605.6498745 604.42238564 606.80006409 605.5721283 C609.28293771 608.05639513 611.7586523 610.54767095 614.234375 613.0390625 C615.95458084 614.76299849 617.6752288 616.48649341 619.39630127 618.20956421 C623.92494332 622.74584251 628.44754715 627.28809494 632.96893311 631.831604 C637.58374014 636.46686953 642.20421396 641.09647863 646.82421875 645.7265625 C655.88837732 654.81217086 664.9463628 663.90390788 674 673 C672.41995703 676.82256618 670.00766837 679.24086871 667.0999279 682.14616776 C666.59448486 682.65391849 666.08904181 683.16166923 665.56828231 683.68480635 C663.86566136 685.39274025 662.1559735 687.09342015 660.44625854 688.79425049 C659.21491454 690.02646629 657.98400999 691.25912135 656.75350869 692.49217868 C653.3648472 695.8853227 649.9699633 699.27218142 646.57405782 702.65807343 C642.91537011 706.308142 639.26244566 709.96397015 635.60882568 713.61911011 C629.27586865 719.95311697 622.93925359 726.28344523 616.60015488 732.61130524 C607.43483409 741.76038721 598.27502643 750.91497233 589.11656453 760.0709196 C574.25821296 774.92489152 559.3953985 789.77438957 544.52978516 804.62109375 C530.08734129 819.04518579 515.64699487 833.47137229 501.20947266 847.90039062 C500.31987342 848.78946441 499.43027419 849.6785382 498.5137174 850.59455362 C494.05097106 855.05468992 489.58826602 859.51486754 485.1255815 863.97506571 C448.0901213 900.98978502 411.04742106 937.99725239 374 975 C369.90157592 971.54796277 365.9236196 968.04838014 362.13404846 964.25430298 C361.23252548 963.35415466 360.3310025 962.45400635 359.40216064 961.52658081 C358.42634456 960.54722704 357.45057712 959.56782481 356.47485352 958.58837891 C355.42971433 957.54295719 354.38435399 956.49775654 353.33879089 955.45275879 C350.51887071 952.63312398 347.70203131 949.81042992 344.88575864 946.98715258 C341.93540106 944.03051814 338.98218671 941.0767399 336.02928162 938.12265015 C330.44594797 932.53621592 324.86516704 926.94723883 319.28531164 921.35733068 C312.92933522 914.9901535 306.57049857 908.62583606 300.21142685 902.26175046 C287.13777896 889.17766701 274.0677052 876.09001857 261 863 C256.80593737 864.92201908 253.93781469 867.79127437 250.73046875 871.0390625 C250.131241 871.63874847 249.53201324 872.23843445 248.91462708 872.85629272 C247.64733463 874.12660291 246.38247017 875.3993393 245.11987305 876.67431641 C243.20990182 878.6023859 241.29220964 880.52249032 239.37304688 882.44140625 C232.24479101 889.53652039 232.24479101 889.53652039 225.51953125 897.0078125 C222.28140256 900.8188762 218.73149823 904.27532954 215.15625 907.765625 C214.53780716 908.3714743 213.91936432 908.97732361 213.28218079 909.60153198 C210.69604901 912.13325146 208.10872257 914.66330456 205.50292969 917.17480469 C203.58432758 919.02715019 201.68174981 920.89473567 199.78125 922.765625 C199.18558228 923.33234924 198.58991455 923.89907349 197.97619629 924.48297119 C196.14589339 926.24270508 196.14589339 926.24270508 194 929 C194.18257808 932.94456682 196.55584261 934.91882271 199.25158691 937.59216309 C200.62719536 938.9674543 200.62719536 938.9674543 202.03059387 940.37052917 C203.05477522 941.37930875 204.07908686 942.38795605 205.10351562 943.39648438 C206.17658316 944.46379453 207.24896977 945.53178966 208.32072449 946.60041809 C210.63007062 948.90027883 212.94399621 951.1953954 215.26152039 953.48701477 C218.92460222 957.109565 222.57624591 960.74349839 226.22619629 964.37927246 C233.97531272 972.09507298 241.73700849 979.79816335 249.5 987.5 C257.88028799 995.81427022 266.25841654 1004.13064597 274.62198973 1012.46173525 C278.25205893 1016.07683938 281.88932298 1019.68449809 285.53221893 1023.2866745 C287.79531182 1025.5274173 290.05219727 1027.77433285 292.30742836 1030.02298546 C293.35575289 1031.06568536 294.40667177 1032.10578426 295.46033287 1033.1430912 C296.89656739 1034.55772745 298.32277242 1035.98252501 299.74841309 1037.40783691 C300.54999596 1038.20275795 301.35157883 1038.99767899 302.17745209 1039.81668854 C305.08111325 1043.2951138 305.08111325 1043.2951138 305 1046 C303.49092175 1048.00277966 302.05514024 1049.59382863 300.27001953 1051.32452393 C299.74903466 1051.84907535 299.22804979 1052.37362678 298.6912775 1052.91407371 C296.93345844 1054.67781077 295.15831637 1056.42302527 293.3828125 1058.16894531 C292.12231814 1059.4263936 290.86292887 1060.68495049 289.60456848 1061.9445343 C286.17505999 1065.37119741 282.73039858 1068.78226219 279.28306198 1072.19097614 C275.67763825 1075.7614608 272.08672056 1079.34647091 268.49438477 1082.93011475 C261.67714715 1089.72661385 254.84769845 1096.51069947 248.0134573 1103.29009604 C238.0046202 1113.21959509 228.01292333 1123.16631718 218.02264404 1133.11448288 C216.54553228 1134.58533483 215.06842046 1136.05618673 213.59130859 1137.52703857 C212.86967529 1138.24567416 212.14804199 1138.96430974 211.40454102 1139.70472217 C207.12594653 1143.96468823 202.84345729 1148.22068951 198.55745792 1152.47320509 C195.88215587 1155.12821035 193.20882946 1157.78519926 190.53583336 1160.44252586 C189.30126313 1161.66887721 188.06579192 1162.89432235 186.82932472 1164.11876106 C178.24291811 1172.61534305 178.24291811 1172.61534305 170.28175354 1181.69601059 C169.64728554 1182.34148535 169.64728554 1182.34148535 169 1183 C168.34 1183 167.68 1183 167 1183 C166.67 1183.99 166.34 1184.98 166 1186 C164.38063989 1187.71266704 162.70408747 1189.37161385 161 1191 C160.02838857 1191.96548588 159.05947296 1192.9336905 158.09294319 1193.9042635 C157.00436703 1194.99155157 155.9157782 1196.07882696 154.82717896 1197.16609192 C153.5725777 1198.41922687 152.3179799 1199.67236527 151.06338501 1200.92550659 C150.39785236 1201.59026379 149.73231972 1202.25502098 149.04661942 1202.93992233 C133.7158321 1218.25301743 118.38790616 1233.56897396 103.0616169 1248.88657093 C94.20438187 1257.73864727 85.34620748 1266.58977981 76.48583984 1275.4387207 C68.74606158 1283.16852258 61.00805101 1290.90008894 53.27214515 1298.63376635 C49.18147798 1302.72313238 45.08994169 1306.81162005 40.99628067 1310.89798927 C37.14457862 1314.74288488 33.29525076 1318.59014168 29.4477005 1322.43919182 C28.03891521 1323.84770295 26.62927858 1325.25536321 25.21870804 1326.66208649 C15.99385648 1335.80389827 15.99385648 1335.80389827 7.32143974 1345.46380138 C5.95122611 1347.05670056 4.50261767 1348.53230809 3 1350 C-2.4972859 1348.53053319 -5.68205323 1344.65287243 -9.5 1340.6875 C-10.15097656 1340.02298828 -10.80195312 1339.35847656 -11.47265625 1338.67382812 C-12.74601329 1337.37346048 -14.01620375 1336.06998326 -15.28295898 1334.76318359 C-16.71601407 1333.29161757 -18.16997922 1331.8404515 -19.62890625 1330.39453125 C-22.80428478 1327.18776512 -25.80790537 1323.83184104 -28.80664062 1320.4609375 C-31.5058337 1317.47459623 -34.29602604 1314.92750853 -37.43732798 1312.39266187 C-39.19620872 1310.82513771 -40.6704506 1309.13924834 -42.19415855 1307.34241009 C-45.94758886 1303.00626134 -49.92107203 1298.94204496 -53.98330688 1294.8964386 C-55.1446737 1293.73379015 -55.1446737 1293.73379015 -56.32950246 1292.54765385 C-58.90561632 1289.96990247 -61.48527029 1287.39572429 -64.06494141 1284.8215332 C-65.9201215 1282.96663539 -67.77508102 1281.11151693 -69.62983704 1279.25619507 C-73.61469664 1275.27081287 -77.60137316 1271.28725582 -81.58931351 1267.30495644 C-87.36053819 1261.54188923 -93.12897075 1255.77603385 -98.89674465 1250.00951328 C-108.26351628 1240.64492684 -117.63251526 1231.28257213 -127.00292969 1221.92163086 C-136.0890606 1212.84467606 -145.1741434 1203.76667433 -154.2578125 1194.68725586 C-154.81768858 1194.1276425 -155.37756467 1193.56802914 -155.95440669 1192.9914578 C-158.76406346 1190.18310642 -161.57369941 1187.37473424 -164.38332486 1184.56635153 C-183.74047436 1165.21780612 -203.09983305 1145.87147342 -222.46147156 1126.52742004 C-223.27737932 1125.71225188 -224.09328707 1124.89708372 -224.93391931 1124.05721349 C-226.43610241 1122.55640486 -227.93829807 1121.0556088 -229.44050944 1119.55482846 C-230.72874112 1118.26779324 -232.01576845 1116.97955072 -233.30124593 1115.68976462 C-234.38622531 1114.61052672 -235.48071171 1113.54070827 -236.58719516 1112.48352849 C-237.75938068 1111.35727425 -238.88571834 1110.18357251 -240 1109 C-240 1108.34 -240 1107.68 -240 1107 C-240.66 1107 -241.32 1107 -242 1107 C-242 1106.34 -242 1105.68 -242 1105 C-242.83328827 1104.67346436 -242.83328827 1104.67346436 -243.68341064 1104.34033203 C-246.72585274 1102.5800362 -248.77975341 1100.16961414 -251.06542969 1097.5546875 C-256.47586274 1091.51132471 -262.15228372 1085.79590705 -267.953125 1080.125 C-268.94931361 1079.14343437 -269.94488582 1078.1612428 -270.93988037 1077.1784668 C-275.10280978 1073.06667152 -279.26787105 1068.95724064 -283.45361328 1064.86865234 C-286.03816012 1062.34331773 -288.61047419 1059.80608361 -291.17501068 1057.26043701 C-292.14818547 1056.29900003 -293.12587809 1055.34211361 -294.10813141 1054.38995361 C-295.46915382 1053.06972074 -296.81364832 1051.73251269 -298.15722656 1050.39453125 C-298.92568909 1049.64018799 -299.69415161 1048.88584473 -300.48590088 1048.10864258 C-302 1046 -302 1046 -301.83299351 1044.1286993 C-300.75858086 1041.3830579 -299.27756516 1039.91166905 -297.186203 1037.83216858 C-296.36602188 1037.00930862 -295.54584076 1036.18644867 -294.70080566 1035.33865356 C-293.79431274 1034.44451752 -292.88781982 1033.55038147 -291.95385742 1032.62915039 C-290.99404384 1031.67182045 -290.03489761 1030.71382101 -289.07637024 1029.75520325 C-287.0110575 1027.69259617 -284.94107261 1025.63483743 -282.86733055 1023.58070564 C-279.58650336 1020.33089941 -276.31608176 1017.07075501 -273.04695129 1013.80918884 C-267.87262178 1008.64935345 -262.69112198 1003.49678543 -257.50665408 998.34713882 C-248.22909749 989.13144259 -238.96359313 979.90363681 -229.70091325 970.67299074 C-226.45102313 967.43491226 -223.19798063 964.20004381 -219.94224775 960.96784031 C-217.91383336 958.95329271 -215.88743625 956.93672448 -213.86147881 954.91970634 C-212.47799038 953.54367305 -211.09192627 952.17023091 -209.70578003 950.796875 C-208.87713943 949.97119522 -208.04849884 949.14551544 -207.19474792 948.29481506 C-206.11819836 947.22549287 -206.11819836 947.22549287 -205.01990032 946.13456821 C-202.8651521 943.85749691 -200.93849082 941.46228909 -199 939 C-196.875 936.6875 -196.875 936.6875 -195 935 C-194.34 935 -193.68 935 -193 935 C-192.67 934.01 -192.34 933.02 -192 932 C-191.34 932 -190.68 932 -190 932 C-192.34081776 927.61066212 -195.42210992 924.31761973 -198.94018555 920.86450195 C-199.53559143 920.2720166 -200.13099731 919.67953125 -200.7444458 919.0690918 C-202.03212391 917.78900003 -203.32210665 916.51122322 -204.61414146 915.23552895 C-206.6564337 913.2188132 -208.69236882 911.19587131 -210.72676086 909.17118835 C-215.04143818 904.87933082 -219.36391432 900.59538071 -223.6875 896.3125 C-228.7078237 891.33931549 -233.72493143 886.36297549 -238.73371315 881.37816429 C-240.74396308 879.38092203 -242.76012022 877.38977323 -244.77653503 875.39875793 C-246.00064891 874.18190465 -247.22448536 872.96477221 -248.44799805 871.74731445 C-249.01367996 871.19196518 -249.57936188 870.63661591 -250.16218567 870.06443787 C-251.47995171 868.74703689 -252.74589648 867.3781426 -254 866 C-254 865.34 -254 864.68 -254 864 C-255.74655063 863.11792442 -255.74655063 863.11792442 -258 863 C-260.39260289 864.64468946 -260.39260289 864.64468946 -262.73297119 867.13169861 C-263.19374676 867.58820205 -263.65452232 868.04470549 -264.12926078 868.51504236 C-265.67676658 870.05428436 -267.20567994 871.61077276 -268.73535156 873.16772461 C-269.83830203 874.27208481 -270.94235343 875.37534643 -272.04742432 876.47758484 C-275.05012711 879.47884918 -278.03713265 882.49531441 -281.0216341 885.51466441 C-284.14106105 888.66528318 -287.27459081 891.8018097 -290.40667725 894.93983459 C-296.3381603 900.88687718 -302.25677991 906.84655396 -308.17092681 912.81083161 C-314.90348334 919.59921587 -321.65019127 926.37345952 -328.39814806 933.14653003 C-342.28127945 947.08196738 -356.14646884 961.03514015 -370 975 C-373.75990067 973.24161631 -376.16962303 971.07799525 -379.11645508 968.12646484 C-379.86124367 967.38452377 -379.86124367 967.38452377 -380.62107849 966.62759399 C-382.25882011 964.99355159 -383.88925513 963.35242566 -385.51953125 961.7109375 C-386.66253238 960.56674305 -387.80590475 959.42291935 -388.94963074 958.27944946 C-391.34754349 955.87997285 -393.74206233 953.47717703 -396.1340332 951.07177734 C-399.18174167 948.00716584 -402.23590353 944.94909043 -405.29245472 941.89330101 C-407.65638676 939.52909517 -410.0176889 937.16227708 -412.37814903 934.79460526 C-413.50215673 933.66744066 -414.62674881 932.54085846 -415.75196266 931.41489792 C-417.33561154 929.82904851 -418.91590719 928.23992834 -420.49536133 926.64990234 C-421.39152664 925.74992523 -422.28769196 924.84994812 -423.21101379 923.92269897 C-425.26354446 921.81603519 -427.18985314 919.63069907 -429.10136414 917.3956604 C-434.07970431 911.66435681 -439.50535386 906.37143824 -444.8828125 901.01953125 C-446.07466613 899.82960012 -447.26628983 898.63943866 -448.45770264 897.44906616 C-451.01038587 894.8995281 -453.56461037 892.35154813 -456.12005615 889.80477905 C-460.16630816 885.77212409 -464.2086765 881.73559091 -468.25048828 877.69848633 C-476.83069304 869.12935099 -485.41512304 860.56445417 -494 852 C-503.27014008 842.7519129 -512.53953866 833.50308982 -521.80405235 824.24936581 C-525.81655443 820.2418259 -529.83147719 816.23673229 -533.84831238 812.23353577 C-536.35223531 809.73710695 -538.85405345 807.23857679 -541.35532379 804.73949051 C-542.50931521 803.58736052 -543.6641654 802.43608989 -544.81996918 801.28577805 C-550.17881404 795.95158232 -555.45025591 790.60512654 -560.36915779 784.85570908 C-563.4040626 781.40233979 -566.6897153 778.19725847 -569.95483398 774.96337891 C-570.71663467 774.20464478 -571.47843536 773.44591064 -572.26332092 772.66418457 C-573.90291824 771.03169375 -575.5436421 769.40033372 -577.18539238 767.77000809 C-579.78049315 765.19239491 -582.37194989 762.61116896 -584.9624176 760.02890015 C-592.32282209 752.6928788 -599.68895765 745.36263129 -607.05932617 738.03662109 C-611.57787601 733.54476532 -616.09161501 729.04812241 -620.60237312 724.54844284 C-622.32257737 722.83446324 -624.04467872 721.12238551 -625.76867485 719.41222 C-628.16727368 717.03271454 -630.55976282 714.64722613 -632.95092773 712.26025391 C-633.66928802 711.55065521 -634.38764832 710.84105652 -635.1277771 710.10995483 C-636.09705894 709.13871674 -636.09705894 709.13871674 -637.08592224 708.14785767 C-637.93508288 707.30341063 -637.93508288 707.30341063 -638.80139828 706.44190407 C-640 705 -640 705 -640 703 C-640.66 703 -641.32 703 -642 703 C-643.37719727 701.6015625 -643.37719727 701.6015625 -645.00390625 699.625 C-649.38242943 694.47566603 -654.13686053 689.75318068 -658.9375 685 C-659.81212891 684.12988281 -660.68675781 683.25976562 -661.58789062 682.36328125 C-663.72297449 680.23986451 -665.86037205 678.11883622 -668 676 C-667 674 -666 672 -665 670 C-664.34 670 -663.68 670 -663 670 C-662.6596875 669.1646875 -662.6596875 669.1646875 -662.3125 668.3125 C-660.63281165 665.3530491 -658.45866715 663.33873216 -656 661 C-655.1646875 660.1028125 -655.1646875 660.1028125 -654.3125 659.1875 C-653 658 -653 658 -651 658 C-650.62875 657.13375 -650.62875 657.13375 -650.25 656.25 C-648.81700012 653.67060021 -647.21575324 651.93878408 -645 650 C-644.34 650 -643.68 650 -643 650 C-642.77969462 649.45451633 -642.55938925 648.90903267 -642.33240795 648.3470192 C-640.57123036 645.24472789 -638.19875239 642.93314292 -635.68147278 640.44769287 C-635.13342332 639.89864013 -634.58537386 639.34958739 -634.02071685 638.78389668 C-632.18234299 636.94456996 -630.33691532 635.11248801 -628.49145508 633.28027344 C-627.17204878 631.96306838 -625.85308993 630.645415 -624.5345459 629.3273468 C-621.69295054 626.48868627 -618.8482249 623.65321352 -616.00104713 620.82015228 C-611.49505313 616.33642567 -606.99615866 611.84562089 -602.49821472 607.3538208 C-595.37762563 600.24461934 -588.25238309 593.14010287 -581.12510461 586.03760839 C-568.37689424 573.33366181 -555.63415874 560.62422983 -542.89672774 547.90947556 C-538.42882834 543.44996102 -533.95813546 538.99327174 -529.48514426 534.53886461 C-526.69500734 531.75941579 -523.9069371 528.97790056 -521.11936188 526.1958828 C-519.83154186 524.91151616 -518.5428518 523.62802117 -517.25320244 522.34549141 C-511.61291374 516.73564033 -506.02710373 511.14366255 -500.86049747 505.08787918 C-496.31982287 499.99226357 -491.37955599 495.25071126 -486.54711914 490.43359375 C-485.29465601 489.18141313 -484.04241391 487.92901141 -482.79037476 486.67640686 C-479.41090046 483.29664707 -476.02836416 479.91996723 -472.6452477 476.54385376 C-469.10271767 473.00759875 -465.56304212 469.4684888 -462.02305603 465.9296875 C-455.32813545 459.23786804 -448.6306711 452.54860058 -441.93227714 445.8602581 C-434.30270731 438.24188735 -426.67599579 430.62065788 -419.0495168 422.99919319 C-403.36951113 407.32962429 -387.68593966 391.66362856 -372 376 C-368.41407463 377.52199335 -366.1206208 379.63255749 -363.38092041 382.37857056 C-361.99695824 383.75840874 -361.99695824 383.75840874 -360.58503723 385.16612244 C-359.56994481 386.18829263 -358.55494864 387.21055842 -357.54003906 388.23291016 C-356.46600073 389.30751273 -355.39152162 390.3816749 -354.31663513 391.45542908 C-351.4013126 394.3701776 -348.49219928 397.29105311 -345.58415318 400.21305895 C-342.54346373 403.26624767 -339.49711269 406.31377666 -336.45135498 409.36190796 C-330.68529328 415.13418678 -324.92434896 420.91154509 -319.16522098 426.69074094 C-312.60813567 433.27017801 -306.04537301 439.84393953 -299.48212481 446.41722798 C-285.98175156 459.93850849 -272.48853257 473.46690799 -259 487 C-254.77857535 485.06558523 -251.89925798 482.16605372 -248.67089844 478.89794922 C-247.7336795 477.96116837 -247.7336795 477.96116837 -246.77752686 477.00546265 C-244.71669931 474.9432435 -242.66304347 472.8740341 -240.609375 470.8046875 C-239.18063275 469.37221453 -237.75144785 467.94018293 -236.32183838 466.50857544 C-232.56257983 462.74168516 -228.80936643 458.96882707 -225.05737305 455.19470215 C-221.22677183 451.34363269 -217.39049405 447.49822729 -213.5546875 443.65234375 C-206.03088622 436.10710066 -198.51345798 428.55554189 -191 421 C-192.52553858 417.39716923 -194.65459219 415.10320086 -197.41653442 412.35641479 C-198.3448407 411.42824951 -199.27314697 410.50008423 -200.22958374 409.54379272 C-201.26120707 408.52243668 -202.29291776 407.50116888 -203.32470703 406.47998047 C-204.40917584 405.39935057 -205.49318975 404.318264 -206.57678223 403.23675537 C-208.90934625 400.91051057 -211.24498067 398.58740876 -213.58301163 396.26665878 C-217.27677869 392.59991956 -220.96292025 388.92557902 -224.6479187 385.25003052 C-232.46772081 377.45242975 -240.2959405 369.66330431 -248.125 361.875 C-256.58343037 353.46057288 -265.04042163 345.04473 -273.4877156 336.61912072 C-277.15456975 332.96225773 -280.82625216 329.3103326 -284.50164437 325.66205192 C-286.78168307 323.39688088 -289.05761644 321.12761985 -291.33242798 318.85720062 C-292.3917323 317.80165553 -293.45277137 316.74784824 -294.51562119 315.69587326 C-295.96078135 314.26504211 -297.39930948 312.82752154 -298.83743286 311.38961792 C-299.64601305 310.58547895 -300.45459324 309.78133999 -301.28767586 308.95283318 C-303 307 -303 307 -303 305 C-301.49609375 303.51953125 -301.49609375 303.51953125 -299.4375 301.8125 C-294.28235327 297.41973413 -289.51035223 292.82178594 -285.14257812 287.64086914 C-279.51067391 281.18257227 -273.34943534 275.22712197 -267.28125 269.18359375 C-265.8923549 267.79662039 -264.5036892 266.40941728 -263.11523438 265.02200317 C-260.13693135 262.04684906 -257.15708481 259.07325282 -254.17602539 256.1008606 C-249.45768432 251.3960969 -244.74320892 246.68747223 -240.02929688 241.97827148 C-229.17230395 231.13329723 -218.3102959 220.29335051 -207.44824219 209.45344543 C-197.48896477 199.51437218 -187.53076046 189.57422999 -177.57660675 179.63002491 C-172.89507146 174.95345768 -168.21111205 170.27933643 -163.5252533 165.60710144 C-160.6061564 162.69548865 -157.68915502 159.78178329 -154.77270508 156.86751938 C-153.42520542 155.52188418 -152.07684537 154.1771099 -150.72753906 152.83328629 C-141.98842882 144.13080052 -141.98842882 144.13080052 -133.7406044 134.96742821 C-129.76518734 130.47396165 -125.43569942 126.30644761 -121.18701172 122.07348633 C-120.11014667 120.99690392 -119.0335029 119.92010014 -117.95706177 118.84309387 C-115.05450847 115.94025544 -112.14889698 113.04049617 -109.2427001 110.14130616 C-106.19231198 107.09720669 -103.14479125 104.05023925 -100.09695435 101.00358582 C-94.32880567 95.23853721 -88.55811541 89.47603975 -82.78649056 83.71447152 C-76.23253234 77.17168736 -69.68140819 70.62606868 -63.13052726 64.08020365 C-51.93091123 52.88925988 -40.7292093 41.70040767 -29.52508545 30.51397705 C-28.14161423 29.13267357 -28.14161423 29.13267357 -26.73019409 27.72346497 C-25.5339784 26.5291975 -25.5339784 26.5291975 -24.31359673 25.31080341 C-23.55010981 24.54823829 -22.78662289 23.78567316 -22 23 C-21.11023027 22.11226237 -20.22046055 21.22452475 -19.3037281 20.30988598 C-17.51590765 18.51728667 -15.76980344 16.71188637 -14.0625 14.84375 C-13.55976562 14.29589844 -13.05703125 13.74804688 -12.5390625 13.18359375 C-12.03117188 12.62800781 -11.52328125 12.07242187 -11 11.5 C-7.41403737 7.57728453 -3.78625914 3.73057886 0 0 Z " fill="#E0DAC8" transform="translate(1022,348)"/>
<path d="M0 0 C4.03973816 1.61037125 6.73191963 4.4765824 9.71875 7.5234375 C10.52838196 8.3373143 10.52838196 8.3373143 11.35437012 9.16763306 C13.07434694 10.89876928 14.78724332 12.63672291 16.5 14.375 C17.65187969 15.53691857 18.80421877 16.6983819 19.95703125 17.859375 C22.07903598 19.99767866 24.19834578 22.13857524 26.31445312 24.28271484 C27.97088061 25.95871829 29.64802522 27.61487231 31.35742188 29.23681641 C33 31 33 31 33 33 C33.5775 33.2475 34.155 33.495 34.75 33.75 C37.32939979 35.18299988 39.06121592 36.78424676 41 39 C41 39.66 41 40.32 41 41 C41.59554687 41.25652344 42.19109375 41.51304687 42.8046875 41.77734375 C45.19696371 43.10969687 46.42728199 44.43368605 48.125 46.5625 C50.20903634 49.21025666 50.20903634 49.21025666 53 51 C53 51.66 53 52.32 53 53 C53.66 53 54.32 53 55 53 C56.43537384 54.45458364 56.43537384 54.45458364 58.10733128 56.47481537 C61.96271697 61.00456986 66.07000316 65.20679004 70.28269958 69.4029541 C71.08905682 70.21016576 71.89541406 71.01737742 72.72620636 71.84905005 C75.4107262 74.53520823 78.09878829 77.21779246 80.78686523 79.90039062 C82.71940167 81.83208677 84.65118119 83.76453923 86.58299255 85.69696045 C90.73319948 89.84769002 94.88522355 93.99659454 99.03851128 98.14424133 C105.04335831 104.14093801 111.04542001 110.14041623 117.04682017 116.14056224 C126.78536009 125.87691719 136.52612794 135.61104001 146.26831055 145.34375 C155.72814557 154.79439654 165.18692267 164.24609984 174.64428711 173.69921875 C175.22789918 174.2825681 175.81151125 174.86591744 176.41280853 175.46694404 C179.34080928 178.39363969 182.26878934 181.32035605 185.1967591 184.24708271 C209.46129798 208.50126625 233.7294583 232.75182336 258 257 C261.14047449 255.4996289 263.28812915 253.96123477 265.75695801 251.49028015 C266.48870743 250.76272522 267.22045685 250.03517029 267.97438049 249.28556824 C268.76722946 248.48709976 269.56007843 247.68863129 270.37695312 246.8659668 C271.2196727 246.02514557 272.06239227 245.18432434 272.9306488 244.31802368 C275.23804132 242.01370018 277.54090573 239.70496681 279.84168053 237.39403892 C282.25350657 234.97341597 284.67061672 232.55808002 287.08703613 230.14204407 C291.1455896 226.08255435 295.20025405 222.01921301 299.25244141 217.95336914 C303.93087183 213.25922953 308.61449164 208.5703203 313.30114985 203.88439626 C318.29735336 198.88886959 323.28973518 193.88953695 328.28101158 188.88908792 C329.71591642 187.45205653 331.15152625 186.0157327 332.58729553 184.57956505 C335.2684043 181.89628652 337.94619297 179.20973916 340.62304688 176.5222168 C341.81232033 175.33362312 341.81232033 175.33362312 343.02561951 174.12101746 C346.57418728 170.55176694 349.93217089 167.00137593 353 163 C354.07303145 162.0270181 355.17589191 161.08539327 356.3125 160.1875 C359.65505639 157.40797549 362.41233181 154.34254488 365.22265625 151.03515625 C367.99079238 147.86548828 370.98474344 144.93277234 374 142 C377.24685606 143.39436632 379.0738314 144.96493338 381.3127346 147.6802187 C384.70480465 151.68393936 388.27839204 155.41638754 391.99624634 159.11650085 C392.66431852 159.78542746 393.3323907 160.45435406 394.02070749 161.14355117 C396.23751624 163.36199384 398.45785567 165.57686715 400.67822266 167.79174805 C402.27724842 169.39049144 403.87605343 170.98945565 405.47465515 172.58862305 C409.80071481 176.91496889 414.12984498 181.23823028 418.4595418 185.56093574 C422.99536255 190.09048792 427.52833505 194.6228887 432.06161499 199.15498352 C439.6709766 206.76159263 447.28207875 214.36645513 454.89453125 221.9699707 C462.71959481 229.7858574 470.54360971 237.60279139 478.36621094 245.42114258 C479.08953224 246.14406979 479.08953224 246.14406979 479.82746609 246.88160159 C482.24753703 249.30036708 484.66758714 251.71915341 487.0876267 254.1379503 C503.76000639 270.80172713 520.43458452 287.46330182 537.11146545 304.12257385 C537.81477757 304.82514637 538.51808968 305.52771889 539.24271429 306.25158149 C540.53546468 307.54296017 541.82822883 308.83432507 543.12101042 310.12567252 C544.23992205 311.24338081 545.35580546 312.36413305 546.46790814 313.48861635 C547.47386024 314.4809717 548.50527024 315.44828606 549.56227183 316.38607943 C550.98389244 317.67097187 550.98389244 317.67097187 553 320 C552.99489416 322.60350033 552.29717702 323.61714482 550.71961594 325.64952755 C550.17395603 326.19242208 549.62829613 326.7353166 549.06610107 327.29466248 C548.44089066 327.92399689 547.81568024 328.5533313 547.17152405 329.20173645 C546.13674171 330.22034004 546.13674171 330.22034004 545.08105469 331.25952148 C544.35742233 331.98359192 543.63378998 332.70766235 542.88822937 333.45367432 C540.48981913 335.84999169 538.08094655 338.23549856 535.671875 340.62109375 C534.00311016 342.28426158 532.33500779 343.94809435 530.6675415 345.61256409 C526.27015564 349.99848601 521.86384293 354.37533267 517.45562744 358.75036621 C512.98198447 363.1934307 508.51671286 367.64489001 504.05078125 372.09570312 C496.82969495 379.29040229 489.60345303 386.47987445 482.37059021 393.66273499 C481.12007621 394.90473105 479.87029729 396.14746785 478.6213913 397.39108086 C477.28797578 398.7142394 475.94423752 400.02698713 474.59771729 401.33680725 C472.24207289 403.75182566 469.99551579 406.22506809 467.75050354 408.74240112 C463.31550643 413.69615383 458.70339681 418.43181306 453.99194336 423.12158203 C452.71713104 424.39661339 452.71713104 424.39661339 451.41656494 425.69740295 C449.11938826 427.99400857 446.82003185 430.28840268 444.51962352 432.58177042 C442.10351212 434.99156569 439.69029454 437.4042556 437.27674866 439.81661987 C432.72102409 444.3692552 428.16276004 448.91933881 423.60354286 453.46847618 C418.4067519 458.6540306 413.21285193 463.84247665 408.01917446 469.03114915 C397.3492953 479.69061853 386.67585068 490.34651106 376 501 C371.82496219 497.47998183 367.76909367 493.90107187 363.875 490.06787109 C363.4139537 489.61500229 362.95290741 489.16213348 362.47789001 488.69554138 C360.98234327 487.22442969 359.49063367 485.74952649 358 484.2734375 C357.48664093 483.76540211 356.97328186 483.25736671 356.44436646 482.73393631 C353.73855032 480.05464229 351.0362771 477.37182709 348.33642578 474.68652344 C346.10467111 472.4682037 343.86583019 470.2574184 341.62060547 468.05273438 C338.89770431 465.37896967 336.18711442 462.69330515 333.48510742 459.99843216 C332.4558414 458.97589183 331.42231504 457.95762155 330.38452148 456.94373703 C328.94137528 455.53201978 327.51514885 454.10306776 326.08984375 452.67333984 C325.27378662 451.86536957 324.45772949 451.05739929 323.61694336 450.22494507 C322 448 322 448 322.10432339 446.17810631 C323.37811204 443.08050719 325.34372582 441.28815751 327.71388245 438.925354 C328.20884671 438.42782647 328.70381097 437.93029893 329.21377414 437.41769481 C330.87578242 435.75074122 332.54829361 434.09474307 334.22094727 432.43847656 C335.41384209 431.24642785 336.60607692 430.05371836 337.79769897 428.86039734 C341.03672016 425.62051415 344.28491891 422.38997458 347.53481412 419.16100407 C350.92878147 415.7857692 354.31427543 412.4020573 357.70066833 409.01922607 C364.11555882 402.61366612 370.53805948 396.21579295 376.96331304 389.82062984 C384.2774438 382.54001167 391.58307484 375.25089016 398.88799584 367.96103334 C413.91587608 352.96452497 428.95442597 337.97875524 444 323 C442.65638247 320.21435157 441.4179415 318.17556322 439.20263672 316.00732422 C438.64220673 315.45350067 438.08177673 314.89967712 437.50436401 314.32907104 C436.90222076 313.74352448 436.30007751 313.15797791 435.6796875 312.5546875 C435.06102814 311.94360138 434.44236877 311.33251526 433.80496216 310.70291138 C431.83304653 308.75539225 429.8548381 306.81446267 427.875 304.875 C425.26257023 302.31556326 422.65668008 299.74972928 420.0546875 297.1796875 C419.44849579 296.59009247 418.84230408 296.00049744 418.21774292 295.39303589 C416.77373364 293.9662425 415.38130591 292.48758065 414 291 C414 290.34 414 289.68 414 289 C413.1646875 288.690625 413.1646875 288.690625 412.3125 288.375 C409.7086732 286.82677866 408.14780749 284.92179486 406.2734375 282.5703125 C403.21508394 278.79896855 399.6108994 275.64959985 395.9375 272.5 C392.9058646 269.87712443 390.43755654 267.19403961 388 264 C385.41649107 261.29046625 383.11856984 259.07904656 380 257 C380 256.34 380 255.68 380 255 C377.34018444 253.93194217 377.34018444 253.93194217 374 254 C371.33992661 255.7297745 369.31777711 257.97818267 367.1875 260.3125 C366.60291016 260.92029297 366.01832031 261.52808594 365.41601562 262.15429688 C362.34283184 265.31329647 362.34283184 265.31329647 360 269 C359.34 269 358.68 269 358 269 C357.34 270.32 356.68 271.64 356 273 C355.34 273 354.68 273 354 273 C353.7428421 273.58247498 353.4856842 274.16494995 353.22073364 274.76507568 C351.89050249 277.20046851 350.43498139 278.80582267 348.46826172 280.75878906 C347.74766571 281.47923401 347.0270697 282.19967896 346.28463745 282.94195557 C345.11893723 284.09217194 345.11893723 284.09217194 343.9296875 285.265625 C343.13345978 286.05902283 342.33723206 286.85242065 341.51687622 287.66986084 C338.97424052 290.20130703 336.42473652 292.72570803 333.875 295.25 C332.14928247 296.96568617 330.42401645 298.68182662 328.69921875 300.3984375 C324.47136968 304.60424248 320.23786131 308.80428507 316 313 C316.75150023 316.27773504 316.75150023 316.27773504 320 318 C319.71118945 323.48165637 316.46711527 326.0664243 312.75537109 329.68286133 C312.10322632 330.33398392 311.45108154 330.98510651 310.7791748 331.65596008 C308.61978859 333.80745966 306.44668784 335.94454454 304.2734375 338.08203125 C302.76611506 339.57934686 301.25975028 341.07762709 299.75430298 342.576828 C295.78382768 346.52635373 291.8019494 350.46417552 287.81713867 354.39923096 C281.45766528 360.68352613 275.11651839 366.98632456 268.77357864 373.2872982 C266.56385952 375.47943094 264.34990931 377.66721252 262.13510132 379.85420227 C260.76367436 381.21239409 259.3923031 382.57064215 258.02099609 383.92895508 C257.10732773 384.82780426 257.10732773 384.82780426 256.17520142 385.74481201 C252.5080207 389.38415128 249.07759948 393.16445465 245.69971657 397.0727644 C243.15331101 399.96002428 240.45123866 402.67286122 237.71679688 405.38085938 C237.13205093 405.96414505 236.54730499 406.54743073 235.94483948 407.14839172 C234.68998179 408.39947919 233.43397164 409.64941164 232.17689514 410.89826965 C230.18088476 412.88137034 228.18814294 414.86770574 226.19616699 416.8548584 C221.25100049 421.78674428 216.30037531 426.71313887 211.34991455 431.63970947 C207.15585394 435.81395355 202.96390637 439.99029856 198.77467346 444.16938782 C196.82315749 446.11448045 194.86862615 448.05650666 192.91394043 449.99841309 C191.70354485 451.20517202 190.49329176 452.4120739 189.28320312 453.61914062 C188.48185692 454.41273735 188.48185692 454.41273735 187.6643219 455.22236633 C184.89538925 457.99091831 182.25996728 460.82433183 179.70654297 463.79345703 C175.49852837 468.64984672 170.96757006 473.15711125 166.41210938 477.68554688 C165.46655737 478.62917497 164.52123629 479.5730345 163.5761261 480.5171051 C161.55546836 482.53462455 159.53327355 484.55058551 157.50984192 486.56532288 C154.30369543 489.75783598 151.10146587 492.95425918 147.89978027 496.15124512 C140.5260369 503.51299583 133.14726757 510.86970217 125.76844025 518.22635651 C119.00025476 524.97430844 112.23316211 531.72334699 105.47012377 538.47645807 C102.2939144 541.64771608 99.1152908 544.81652727 95.93473053 547.98342133 C93.94977209 549.96086716 91.96693557 551.94043058 89.98464012 553.92054558 C88.64111627 555.26133578 87.29507359 556.59960058 85.94892883 557.9377594 C81.68746716 562.19885277 77.60149681 566.53253021 73.67232323 571.10085297 C70.81518901 574.34551159 67.75232593 577.37844919 64.68774414 580.42578125 C63.99421844 581.11945297 63.30069275 581.81312469 62.58615112 582.52781677 C60.32151826 584.79175988 58.05337751 587.05215259 55.78515625 589.3125 C54.20310434 590.8926844 52.62127488 592.47309153 51.03965759 594.05371094 C46.89746722 598.19210237 42.75228143 602.32748054 38.60644531 606.46221924 C34.36796357 610.69043019 30.13234829 614.92151052 25.89648438 619.15234375 C17.60044488 627.43769225 9.30123518 635.71985738 1 644 C-2.0640583 642.66044308 -3.82220809 641.30761104 -5.9143219 638.71578979 C-11.35631199 632.29723511 -17.40884527 626.4770263 -23.37084961 620.54736328 C-24.72185012 619.19992382 -26.07261276 617.85224581 -27.42315674 616.50434875 C-30.31803739 613.61598958 -33.21441909 610.72914726 -36.11195183 607.84344864 C-40.69017411 603.28358045 -45.26399374 598.71931334 -49.83705139 594.15426636 C-62.83659512 581.17883293 -75.84210632 568.20939029 -88.85180664 555.24414062 C-96.04725594 548.0731988 -103.23913895 540.89869957 -110.42717749 533.72032917 C-114.97668313 529.17737959 -119.53066589 524.63898052 -124.08796966 520.10385442 C-126.91215968 517.29135056 -129.73220185 514.47471697 -132.55105591 511.65686607 C-133.86353849 510.34654002 -135.17775382 509.03794707 -136.49377632 507.73117638 C-138.28247758 505.95457081 -140.06500489 504.17199751 -141.84605408 502.38772583 C-142.37433916 501.86594855 -142.90262423 501.34417128 -143.44691795 500.80658257 C-147 497.22821542 -147 497.22821542 -147 495 C-147.56203125 494.7628125 -148.1240625 494.525625 -148.703125 494.28125 C-151.51894042 492.71052303 -153.47955416 490.78528536 -155.75 488.5 C-156.54921875 487.7059375 -157.3484375 486.911875 -158.171875 486.09375 C-160 484 -160 484 -160 482 C-160.99 481.67 -161.98 481.34 -163 481 C-163 480.34 -163 479.68 -163 479 C-163.61875 478.7525 -164.2375 478.505 -164.875 478.25 C-167.35068687 476.79371361 -167.95125002 475.62187494 -169 473 C-169.66 473 -170.32 473 -171 473 C-171 472.34 -171 471.68 -171 471 C-171.66 471 -172.32 471 -173 471 C-173 470.34 -173 469.68 -173 469 C-173.66 469 -174.32 469 -175 469 C-176.4598093 467.52074432 -176.4598093 467.52074432 -178.15077209 465.48132324 C-181.77985384 461.21678651 -185.61901122 457.24606477 -189.58764648 453.29882812 C-190.6718261 452.21442947 -190.6718261 452.21442947 -191.77790833 451.10812378 C-194.13993791 448.7467844 -196.50547713 446.38899535 -198.87109375 444.03125 C-200.52040633 442.38380478 -202.16949657 440.73613694 -203.81837463 439.08825684 C-208.13811672 434.77231493 -212.46085453 430.45938583 -216.78424072 426.14709473 C-221.20369041 421.73791314 -225.62027598 417.32586464 -230.03710938 412.9140625 C-238.68861856 404.27324651 -247.34329788 395.63561329 -256 387 C-262.26692746 392.17568017 -267.97609166 397.84111229 -273.70874023 403.59521484 C-274.77358361 404.66034074 -275.83864811 405.72524559 -276.90391541 406.78994751 C-279.77755283 409.6632995 -282.6481092 412.53971143 -285.51809955 415.41670561 C-288.52451203 418.42939403 -291.53378039 421.43922714 -294.54273987 424.44937134 C-300.23232124 430.14205356 -305.91934994 435.83727878 -311.60545355 441.53343451 C-318.08234709 448.02152797 -324.56210012 454.50676242 -331.04208839 460.99176478 C-344.36456418 474.32467674 -357.68346596 487.66115372 -371 501 C-374.67923514 499.27432846 -377.04759899 497.20011156 -379.93286133 494.31005859 C-380.40987991 493.83493835 -380.8868985 493.35981812 -381.37837219 492.87030029 C-382.95118374 491.30118688 -384.51668571 489.72499635 -386.08203125 488.1484375 C-387.18019183 487.0490835 -388.27872377 485.95010035 -389.37760925 484.85147095 C-391.68136583 482.54615068 -393.98172762 480.23751341 -396.27954102 477.92626953 C-399.20618338 474.9827277 -402.13927381 472.04572006 -405.07475758 469.11099815 C-407.34604344 466.83943839 -409.61469821 464.56526588 -411.88251305 462.29024124 C-412.96186413 461.20773486 -414.04179823 460.12580943 -415.12235451 459.04450607 C-416.643737 457.52092108 -418.16176369 455.99406584 -419.67895508 454.46630859 C-420.53959061 453.60186127 -421.40022614 452.73741394 -422.28694153 451.84677124 C-424.37302754 449.65787273 -426.36205447 447.44774884 -428.33538818 445.16064453 C-432.0302355 440.90669884 -435.95287988 436.92704419 -439.95483398 432.96337891 C-440.71663467 432.20464478 -441.47843536 431.44591064 -442.26332092 430.66418457 C-443.90291824 429.03169375 -445.5436421 427.40033372 -447.18539238 425.77000809 C-449.78049315 423.19239491 -452.37194989 420.61116896 -454.9624176 418.02890015 C-462.32282209 410.6928788 -469.68895765 403.36263129 -477.05932617 396.03662109 C-481.57787601 391.54476532 -486.09161501 387.04812241 -490.60237312 382.54844284 C-492.32257737 380.83446324 -494.04467872 379.12238551 -495.76867485 377.41222 C-498.16727368 375.03271454 -500.55976282 372.64722613 -502.95092773 370.26025391 C-503.66928802 369.55065521 -504.38764832 368.84105652 -505.1277771 368.10995483 C-506.09705894 367.13871674 -506.09705894 367.13871674 -507.08592224 366.14785767 C-507.65202933 365.58489298 -508.21813643 365.02192829 -508.80139828 364.44190407 C-510 363 -510 363 -510 361 C-510.66 361 -511.32 361 -512 361 C-513.46412659 359.51339722 -513.46412659 359.51339722 -515.15844727 357.46826172 C-518.73563169 353.26372901 -522.52846282 349.37407349 -526.46484375 345.5078125 C-527.85494379 344.13033556 -529.24491418 342.75272777 -530.63476562 341.375 C-532.80129119 339.23346234 -534.96940629 337.09357827 -537.13989258 334.95605469 C-539.25251779 332.8734444 -541.35903353 330.78481011 -543.46484375 328.6953125 C-544.12097153 328.05264435 -544.7770993 327.4099762 -545.45310974 326.74783325 C-546.05115921 326.15316254 -546.64920868 325.55849182 -547.26538086 324.94580078 C-547.7949791 324.42365997 -548.32457733 323.90151917 -548.870224 323.36355591 C-550 322 -550 322 -550 320 C-548.37198766 318.2727285 -546.71538478 316.63701727 -545 315 C-543.90302569 313.90923657 -542.8088599 312.81564393 -541.7169838 311.71977711 C-540.44921077 310.45329637 -539.18142724 309.18682614 -537.91363525 307.92036438 C-536.45479498 306.46299066 -534.9959583 305.00561336 -533.53712463 303.54823303 C-532.37343448 302.38570605 -532.37343448 302.38570605 -531.18623543 301.19969368 C-513.88162952 283.91221921 -496.57957163 266.62219727 -479.27931006 249.33037539 C-476.72577662 246.77809245 -474.17222125 244.22583144 -471.61865234 241.67358398 C-471.11034704 241.16554099 -470.60204173 240.65749799 -470.07833323 240.13405975 C-461.82619454 231.88628354 -453.57229246 223.64027416 -445.31775048 215.39490328 C-436.84177778 206.92826921 -428.36769316 198.45974887 -419.89537215 189.98946065 C-415.13869708 185.23403589 -410.3811439 180.47949649 -405.62140656 175.72713661 C-401.15088194 171.26337152 -396.68267891 166.79729601 -392.21628761 162.32939529 C-390.57277281 160.68615678 -388.92839373 159.04378218 -387.28310966 157.40231514 C-385.04591514 155.17005904 -382.81178431 152.93478207 -380.57843018 150.69868469 C-379.91940146 150.04256882 -379.26037274 149.38645294 -378.58137345 148.71045476 C-377.98680526 148.11389552 -377.39223706 147.51733627 -376.77965164 146.90269947 C-376.26328431 146.38671186 -375.74691699 145.87072425 -375.21490216 145.33910066 C-373.88435446 143.99352183 -373.88435446 143.99352183 -373 142 C-370.00902548 142.32262197 -369.04782278 142.94879396 -366.95703125 145.1875 C-365.89548828 146.5796875 -365.89548828 146.5796875 -364.8125 148 C-360.546894 153.41106527 -355.94574801 158.21670356 -351 163 C-349.33167303 164.66500471 -347.66535611 166.3320238 -346 168 C-344.92351573 169.07667328 -343.84693122 170.15324634 -342.77026367 171.22973633 C-334.18017578 179.81982422 -325.59008789 188.40991211 -317 197 C-318.57272655 200.79247167 -320.94538892 203.1918788 -323.83413696 206.074646 C-324.32995565 206.57217353 -324.82577433 207.06970107 -325.33661783 207.58230519 C-326.99785409 209.24683353 -328.66613352 210.90411658 -330.33447266 212.56152344 C-331.52730029 213.7537869 -332.71968764 214.94649099 -333.91166687 216.13960266 C-337.14871734 219.3772274 -340.39190117 222.60864481 -343.63620806 225.83899593 C-347.02572142 229.21601437 -350.40957912 232.59869012 -353.79403687 235.98077393 C-360.20380283 242.38432149 -366.6186504 248.78275334 -373.03533208 255.17937016 C-380.34026753 262.46195784 -387.63953083 269.75021929 -394.93831944 277.03896666 C-409.95256969 292.03230674 -424.97394102 307.01849505 -440 322 C-439.06089499 323.10597148 -438.12028535 324.21066544 -437.17906189 325.31483459 C-436.65542525 325.93015077 -436.13178862 326.54546694 -435.5922842 327.17942905 C-433.24287634 329.86567293 -430.73499249 332.37024248 -428.19140625 334.87109375 C-427.66159653 335.39711685 -427.1317868 335.92313995 -426.58592224 336.46510315 C-424.35434099 338.6805848 -422.11677295 340.88998157 -419.87963867 343.09985352 C-414.40205487 348.51660196 -408.97791038 353.91291424 -403.97387695 359.77709961 C-399.55317934 364.75551046 -394.83945164 369.46431866 -390.15600586 374.1940918 C-388.91628535 375.45055863 -387.68198039 376.71238965 -386.45288086 377.97924805 C-384.66405355 379.82250455 -382.85962726 381.64906734 -381.05078125 383.47265625 C-380.22879997 384.32864159 -380.22879997 384.32864159 -379.39021301 385.20191956 C-377.68481955 386.95607445 -377.68481955 386.95607445 -375 389 C-370.77180758 388.88787361 -368.53016109 385.87760072 -365.71240234 383.02124023 C-365.19809158 382.50415497 -364.68378082 381.9870697 -364.15388489 381.45431519 C-362.45763523 379.74579208 -360.77204168 378.02712465 -359.0859375 376.30859375 C-357.90897395 375.12095521 -356.7311975 373.93412174 -355.55264282 372.74806213 C-352.45314088 369.62577529 -349.3618842 366.49546704 -346.27313232 363.36254883 C-341.32336829 358.34259457 -336.3660975 353.33015288 -331.39964676 348.32670784 C-329.66352764 346.57382956 -327.93393499 344.81468658 -326.2046814 343.05503845 C-325.14631942 341.98622092 -324.08770879 340.91764954 -323.02880859 339.84936523 C-322.10377533 338.91084213 -321.17874207 337.97231903 -320.22567749 337.00535583 C-318 335 -318 335 -316 335 C-316 334.34 -316 333.68 -316 333 C-315.34 333 -314.68 333 -314 333 C-313.67 332.01 -313.34 331.02 -313 330 C-312.34 330 -311.68 330 -311 330 C-312.91135386 326.46399535 -314.62642766 324.21027154 -318 322 C-316.52811648 318.59099567 -314.62712902 316.3889515 -311.99682617 313.78564453 C-311.17224411 312.96444122 -310.34766205 312.14323792 -309.49809265 311.29714966 C-308.15905632 309.97830276 -308.15905632 309.97830276 -306.79296875 308.6328125 C-305.3908513 307.23864366 -303.98873648 305.84447217 -302.58677387 304.45014763 C-300.62236987 302.49886557 -298.65346465 300.55215651 -296.68450928 298.60546875 C-293.25020628 295.20911153 -289.82058116 291.80804789 -286.39460754 288.40328979 C-284.57209788 286.59297413 -282.74692127 284.78533836 -280.91874695 282.98074341 C-276.70740567 278.80237891 -272.75018578 274.59251353 -269 270 C-267.53284984 268.78800639 -266.06479379 267.57686476 -264.57843244 266.38850957 C-262.82578355 264.84674592 -261.37663916 263.19169461 -259.87008095 261.40884686 C-255.77033956 256.67077435 -251.39041768 252.25441315 -246.95370483 247.83345032 C-246.06512083 246.94401189 -245.17653682 246.05457345 -244.26102602 245.13818234 C-241.81458838 242.68952506 -239.36507147 240.24396923 -236.91500711 237.79894149 C-234.26560869 235.15388432 -231.61912436 232.50591418 -228.97227478 229.85830688 C-224.39154972 225.27705882 -219.80900489 220.69763768 -215.22520065 216.1194706 C-208.59244468 209.4948657 -201.96247451 202.86747844 -195.33316596 196.23942389 C-184.56879365 185.4772376 -173.80219291 174.71728355 -163.03417969 163.95874023 C-152.58997614 153.5237122 -142.14682026 143.08763753 -131.70507812 132.65014648 C-130.73981018 131.68527263 -130.73981018 131.68527263 -129.75504188 130.70090637 C-126.52583115 127.47300098 -123.2966412 124.24507479 -120.06746173 121.01713812 C-97.81902188 98.77730334 -75.56837485 76.53967861 -53.31544495 54.30433655 C-52.84080684 53.83007261 -52.36616873 53.35580866 -51.87714765 52.86717309 C-49.68222936 50.67398894 -47.48729639 48.48081947 -45.29233778 46.28767568 C-43.82001829 44.81654849 -42.34776676 43.34535327 -40.87560439 41.87406886 C-39.72067658 40.72008657 -38.56542943 39.56642364 -37.40965295 38.41329134 C-35.11238431 36.12031085 -32.85083062 33.80662431 -30.64453125 31.42578125 C-20.6631174 20.70990082 -10.41373164 10.29555905 0 0 Z " fill="#000000" transform="translate(1023,701)"/>
<path d="M0 0 C3.77775845 1.56977641 6.17272683 3.92371577 9.04772949 6.80049133 C9.54243476 7.29278219 10.03714004 7.78507305 10.54683638 8.29228181 C12.20202883 9.94184203 13.84998083 11.59844902 15.49804688 13.25512695 C16.68382789 14.43983495 17.87004176 15.62410984 19.05665588 16.8079834 C22.27812346 20.02460191 25.49330289 23.24743929 28.70726967 26.47155023 C32.07202809 29.84509188 35.44205718 33.21336072 38.81140137 36.58232117 C44.47061956 42.24247612 50.12595058 47.90649147 55.77880859 53.57299805 C62.31130866 60.12121234 68.84900903 66.66419696 75.38973761 73.20419151 C82.35465702 80.16843487 89.31575972 87.13648364 96.27575111 94.10565162 C98.28018736 96.11221748 100.28533183 98.11807329 102.29063416 100.12377357 C105.44484216 103.27898782 108.59648117 106.43674651 111.74616814 109.59647369 C112.90144447 110.7546654 114.05756143 111.91201931 115.21458626 113.06846428 C116.79614181 114.64952721 118.37457863 116.23364066 119.95227051 117.81855774 C120.83568367 118.70364675 121.71909683 119.58873575 122.62928009 120.50064564 C124.9071493 122.90211126 126.97485567 125.38379723 129 128 C133.21433109 127.51722823 135.46849119 124.94359771 138.3024292 122.05833435 C138.82445805 121.53886878 139.3464869 121.0194032 139.8843348 120.48419625 C141.63420244 118.73927556 143.37312255 116.98383797 145.11230469 115.22827148 C146.36346597 113.97626413 147.61528794 112.72491671 148.86772156 111.47418213 C152.26875508 108.07401076 155.66044773 104.66465665 159.05057049 101.25361133 C162.59397002 97.69148164 166.14584426 94.1378232 169.69683838 90.58326721 C176.42114082 83.84963356 183.13775818 77.10838777 189.85166574 70.36439139 C197.49503528 62.68751139 205.14690621 55.01912932 212.79951239 47.35145843 C228.54250372 31.57709367 244.27475817 15.79205774 260 0 C263.57309709 1.66471427 265.53899368 3.48205984 268.12084961 6.48974609 C272.90059656 11.93184447 277.93095856 17.05900243 283.06640625 22.1640625 C283.98590561 23.08214691 284.90540497 24.00023132 285.85276794 24.94613647 C288.26214567 27.35175037 290.67451343 29.75434263 293.08758545 32.15625 C295.56351145 34.62182763 298.0365027 37.09034526 300.50976562 39.55859375 C305.33702644 44.37522589 310.16746243 49.1886622 315 54 C313.70564548 56.84716126 312.34509129 58.90386642 310.13412189 61.10918045 C309.54576284 61.70090491 308.95740378 62.29262936 308.35121566 62.90228486 C307.38076105 63.86297777 307.38076105 63.86297777 306.39070129 64.84307861 C305.70381106 65.53097214 305.01692082 66.21886566 304.30921572 66.92760444 C302.00098588 69.23678863 299.68567589 71.5387413 297.37036133 73.84082031 C295.71598409 75.49299677 294.06205398 77.14562105 292.40853882 78.79866028 C288.84339373 82.36086887 285.27511053 85.91989361 281.70438576 89.47650909 C276.53357879 94.62695041 271.36846095 99.78306827 266.20505079 104.94092271 C257.8167546 113.31996098 249.42436937 121.6948907 241.02905273 130.06689453 C240.52660601 130.56794794 240.02415929 131.06900135 239.50648692 131.58523819 C239.00343804 132.08689154 238.50038916 132.58854488 237.98209637 133.10539985 C230.8613089 140.20644869 223.74146934 147.30844609 216.62280273 154.41162109 C216.12248375 154.91084923 215.62216477 155.41007736 215.1066846 155.92443362 C206.75069172 164.26237382 198.39674855 172.60236573 190.04384822 180.94340396 C184.43866774 186.54033917 178.83053814 192.13430261 173.2202059 197.72607374 C169.72427383 201.21133627 166.23039316 204.69864998 162.73701096 208.18646812 C161.12022598 209.79979256 159.50257038 211.41224507 157.88396645 213.02374458 C155.6683759 215.22982709 153.45594412 217.43903204 151.24421692 219.64898682 C150.60840079 220.28052587 149.97258465 220.91206492 149.31750137 221.56274152 C145.56888594 225.31607951 142.01769597 229.18915472 138.56343573 233.21546531 C136.47954362 235.59405862 134.26958382 237.79919144 132 240 C128.12379724 239.06031448 126.24246271 237.32719761 123.76553535 234.36247444 C120.28184313 230.28918683 116.61327575 226.47806605 112.81393433 222.70040894 C111.78119941 221.66745073 111.78119941 221.66745073 110.72760117 220.61362469 C108.44169913 218.32841191 106.15225322 216.04678422 103.86279297 213.76513672 C102.21449881 212.11876355 100.56643352 210.47216121 98.9185791 208.8253479 C95.38041852 205.29033957 91.84071245 201.75688879 88.29980087 198.22463608 C83.17442747 193.1116688 78.05214137 187.99561897 72.93082239 182.87859096 C64.6120536 174.56687513 56.2914182 166.25703081 47.96923828 157.94873047 C47.47208506 157.45240506 46.97493184 156.95607965 46.46271338 156.44471408 C42.93352497 152.92142658 39.40426966 149.39820611 35.875 145.875 C31.83995917 141.84688986 27.8049503 137.81874772 23.77001953 133.79052734 C23.02429577 133.04604577 23.02429577 133.04604577 22.26350687 132.28652416 C13.96832003 124.00503252 5.67510405 115.72156994 -2.6167134 107.43670475 C-8.17858609 101.87981238 -13.74288763 96.3253671 -19.3090632 90.77278495 C-22.7699689 87.31933999 -26.22880032 83.86382326 -29.68707275 80.40774155 C-31.29019988 78.80648584 -32.89419096 77.20609456 -34.49911118 75.60663605 C-36.69102977 73.42194208 -38.87983047 71.23417016 -41.06790161 69.04562378 C-42.01941201 68.09950582 -42.01941201 68.09950582 -42.99014485 67.13427436 C-52.93271608 57.16857612 -52.93271608 57.16857612 -53.11793518 53.95172119 C-51.49321575 51.11524247 -49.43352328 49.07617251 -47.11303711 46.77246094 C-46.60570541 46.26469116 -46.09837372 45.75692139 -45.57566833 45.23376465 C-43.89990733 43.56009075 -42.21377731 41.89728872 -40.52734375 40.234375 C-39.36226727 39.07489473 -38.19785214 37.91474958 -37.03407288 36.75396729 C-33.97133103 33.70267213 -30.89968669 30.66049375 -27.82611084 27.62011719 C-24.69050356 24.5152144 -21.56338633 21.4017869 -18.43554688 18.2890625 C-12.29864898 12.18432568 -6.15232143 6.08919256 0 0 Z " fill="#010101" transform="translate(893,1340)"/>
<path d="M0 0 C3.05958212 1.56877697 5.29472755 4.01458704 7.67138672 6.44702148 C8.22622238 7.00373032 8.78105804 7.56043915 9.35270691 8.13401794 C10.52698992 9.31502051 11.69767089 10.49961398 12.86499023 11.6875 C14.62819106 13.48153697 16.40153218 15.26498719 18.17724609 17.04663086 C19.32174479 18.2003145 20.46564353 19.35459369 21.60888672 20.50952148 C22.12892776 21.03381241 22.64896881 21.55810333 23.18476868 22.09828186 C25.84068585 24.80451817 28.38588511 27.56283658 30.84318542 30.45091248 C35.60968135 35.91251443 40.76008662 40.98792019 45.89599609 46.09741211 C46.9991811 47.19867418 48.10213588 48.30016694 49.20487976 49.40187073 C51.56603394 51.75988185 53.9287281 54.11633476 56.29264832 56.47157288 C60.03646139 60.20177774 63.77638058 63.9358706 67.51574707 67.67053223 C75.45398207 75.59770239 83.39644392 83.52063133 91.33935547 91.44311523 C99.91659737 99.99829811 108.49309394 108.55422034 117.06470442 117.11504602 C120.77614131 120.82152408 124.48999692 124.52555568 128.2057724 128.22768402 C130.52286764 130.53727945 132.83785281 132.84898122 135.15229225 135.16123772 C136.2192048 136.22629056 137.28697519 137.29048494 138.35570335 138.3537159 C143.53003335 143.50228379 148.6315096 148.66856134 153.35923862 154.23659515 C156.04142687 157.32905918 158.96098919 160.1874753 161.86669922 163.06811523 C162.50047989 163.70048096 163.13426056 164.33284668 163.7872467 164.984375 C165.78141525 166.97301509 167.779059 168.95812051 169.77685547 170.94311523 C171.14232292 172.30355842 172.50755932 173.66423355 173.87255859 175.02514648 C177.19216433 178.33381833 180.5148882 181.63932845 183.83935547 184.94311523 C182.26123583 188.75457206 179.85871399 191.17739961 176.96240234 194.07885742 C176.46789078 194.57687363 175.97337921 195.07488983 175.46388245 195.58799744 C173.83360744 197.22705086 172.19615462 198.8587089 170.55810547 200.48999023 C169.42202966 201.62741338 168.28625087 202.76513327 167.15075684 203.90313721 C164.77333992 206.28349975 162.39234999 208.66021406 160.00878906 211.03442383 C156.94850047 214.08329229 153.89731198 217.14108563 150.84871674 220.20164108 C148.50695786 222.55061155 146.16047551 224.89481666 143.81251526 227.23758698 C142.68507404 228.36369109 141.55912469 229.49129084 140.43467712 230.62038422 C138.8666645 232.19345335 137.29242371 233.7600061 135.71630859 235.32495117 C134.82077271 236.21889587 133.92523682 237.11284058 133.00256348 238.03387451 C130.83935547 239.94311523 130.83935547 239.94311523 128.83935547 239.94311523 C127.46990871 238.55310631 127.46990871 238.55310631 125.84922791 236.58309937 C121.39297309 231.34819514 116.55795253 226.54454414 111.68139648 221.70336914 C110.6752178 220.70075445 109.66927876 219.69789922 108.66355896 218.69482422 C106.51351779 216.55128735 104.36197581 214.40927284 102.20926094 212.26842117 C98.80718739 208.8847513 95.40956041 205.49663983 92.01268005 202.10775757 C82.35848814 192.47764024 72.69828213 182.85356866 63.03393555 173.23364258 C57.68430513 167.90852281 52.33824555 162.57984414 46.99602455 157.24729097 C43.61731997 153.87513784 40.23415409 150.50754503 36.84764588 147.14322972 C34.75001684 145.05729034 32.65654221 142.96722096 30.56424904 140.87593079 C29.59040309 139.90424034 28.61482564 138.93428185 27.63743973 137.96615219 C26.30857986 136.64939806 24.98637022 135.32594244 23.66456604 134.00210571 C22.9214747 133.26215677 22.17838335 132.52220783 21.41277409 131.7598362 C19.83935547 129.94311523 19.83935547 129.94311523 19.83935547 127.94311523 C19.26185547 127.69561523 18.68435547 127.44811523 18.08935547 127.19311523 C15.50995568 125.76011535 13.77813955 124.15886847 11.83935547 121.94311523 C11.83935547 121.28311523 11.83935547 120.62311523 11.83935547 119.94311523 C11.25669922 119.68788086 10.67404297 119.43264648 10.07373047 119.16967773 C7.62547324 117.82570436 6.02192299 116.32501228 4.08935547 114.31811523 C3.47576172 113.68647461 2.86216797 113.05483398 2.22998047 112.40405273 C1.77107422 111.92194336 1.31216797 111.43983398 0.83935547 110.94311523 C-3.0150696 112.53027653 -5.45325299 114.98674621 -8.38041687 117.91564941 C-8.89357305 118.42639118 -9.40672923 118.93713294 -9.93543559 119.46335173 C-11.65290762 121.17519004 -13.36314081 122.89408066 -15.07348633 124.61303711 C-16.30354322 125.84202106 -17.53403294 127.07057192 -18.7649231 128.29872131 C-22.10601951 131.63496898 -25.44083016 134.97743563 -28.77442527 138.32117653 C-32.26070691 141.81623589 -35.75225365 145.30602803 -39.24311829 148.79650879 C-45.10323866 154.65756578 -50.95947207 160.52248384 -56.81323242 166.38989258 C-63.5877648 173.18016142 -70.36752062 179.96517849 -77.1502921 186.7472167 C-83.66889036 193.26520534 -90.18462982 199.78604352 -96.69877052 206.30848694 C-99.47428969 209.08754284 -102.25066205 211.86574227 -105.02768517 214.64329529 C-108.29433205 217.91094424 -111.55842529 221.1811229 -114.82052994 224.4533062 C-116.02059871 225.65630384 -117.22152294 226.85844879 -118.42334557 228.05969429 C-120.05849661 229.69435707 -121.69055503 231.33204472 -123.32182312 232.97058105 C-124.23749904 233.88793282 -125.15317495 234.80528458 -126.09659863 235.75043488 C-128.19163604 237.76557476 -128.19163604 237.76557476 -129.16064453 239.94311523 C-133.02530786 238.35531164 -135.46123609 235.88378294 -138.38818359 232.94262695 C-138.89595337 232.43514923 -139.40372314 231.92767151 -139.92687988 231.40481567 C-141.59812962 229.73217654 -143.26219009 228.05257307 -144.92626953 226.37280273 C-146.0859683 225.20937245 -147.24611045 224.04638398 -148.40667725 222.88381958 C-151.45573805 219.82713324 -154.49874416 216.7644878 -157.54052734 213.70056152 C-160.64724366 210.57336359 -163.75964999 207.45184016 -166.87158203 204.32983398 C-172.9735187 198.20646644 -179.06907051 192.07679163 -185.16064453 185.94311523 C-183.59731781 182.18905837 -181.276028 179.81441969 -178.41157532 176.96026611 C-177.92477915 176.47246666 -177.43798297 175.9846672 -176.9364354 175.48208594 C-175.30534942 173.850048 -173.66722615 172.22526322 -172.02905273 170.6003418 C-170.8574277 169.4309183 -169.68625032 168.26104615 -168.51548767 167.09075928 C-165.99310512 164.57131052 -163.46759718 162.05505198 -160.93963051 159.54120636 C-156.93770438 155.56156018 -152.94289058 151.5748257 -148.94902039 147.58709717 C-142.6252904 141.27475305 -136.2969091 134.9670958 -129.96648806 128.66146255 C-118.64620161 117.38543816 -107.33138021 106.10393696 -96.02187794 94.81709647 C-92.05575444 90.85935069 -88.08683958 86.9044322 -84.11561453 82.95180559 C-81.63685617 80.48374692 -79.16017405 78.01361231 -76.68398476 75.54297638 C-75.54129692 74.40373747 -74.39773945 73.26537001 -73.25321579 72.12797546 C-67.87931365 66.78679013 -62.58526781 61.43399379 -57.65683842 55.67158318 C-55.36883495 53.02838253 -52.93244959 50.544182 -50.47241211 48.06201172 C-49.69047737 47.26781075 -49.69047737 47.26781075 -48.89274597 46.45756531 C-47.19981035 44.74019749 -45.50308248 43.02666157 -43.80517578 41.31420898 C-43.22082952 40.72453905 -42.63648327 40.13486912 -42.03442955 39.5273304 C-38.95313042 36.41951116 -35.86831026 33.31523186 -32.78100586 30.21337891 C-30.23001868 27.64895383 -27.68653816 25.0774117 -25.14916992 22.49951172 C-22.07224981 19.37347086 -18.98341782 16.25969973 -15.88541222 13.15455818 C-14.70936619 11.9717843 -13.53759126 10.78474782 -12.37018776 9.59344292 C-10.74513327 7.93697344 -9.10523288 6.29676156 -7.46069336 4.65966797 C-6.06673088 3.25357521 -6.06673088 3.25357521 -4.64460754 1.81907654 C-2.16064453 -0.05688477 -2.16064453 -0.05688477 0 0 Z " fill="#010101" transform="translate(1024.16064453125,468.056884765625)"/>
<path d="M0 0 C19.14 0 38.28 0 58 0 C58 77.22 58 154.44 58 234 C38.86 234 19.72 234 0 234 C0 202.65 0 171.3 0 139 C-33.99 139 -67.98 139 -103 139 C-103 170.35 -103 201.7 -103 234 C-121.81 234 -140.62 234 -160 234 C-160 157.11 -160 80.22 -160 1 C-141.19 1 -122.38 1 -103 1 C-103 33.01 -103 65.02 -103 98 C-69.01 98 -35.02 98 0 98 C0 65.66 0 33.32 0 0 Z " fill="#DFD9C7" transform="translate(1076,904)"/>
<path d="M0 0 C0.66 0.33 1.32 0.66 2 1 C-0.41556126 4.19199167 -2.68003538 6.74716687 -6 9 C-6.66 8.67 -7.32 8.34 -8 8 C-5.36 5.36 -2.72 2.72 0 0 Z M-9 9 C-9 12 -9 12 -10.75 14.04296875 C-11.4925 14.75066406 -12.235 15.45835938 -13 16.1875 C-13.7425 16.90292969 -14.485 17.61835937 -15.25 18.35546875 C-16.11625 19.16951172 -16.11625 19.16951172 -17 20 C-17.66 19.67 -18.32 19.34 -19 19 C-15.7 15.7 -12.4 12.4 -9 9 Z M-20 20 C-20 23.9630046 -21.27346349 24.75603761 -23.9375 27.625 C-25.15566406 28.93984375 -25.15566406 28.93984375 -26.3984375 30.28125 C-30.20042145 34.25449449 -34.06994535 38.15356353 -38 42 C-38.33 41.01 -38.66 40.02 -39 39 C-32.73 32.73 -26.46 26.46 -20 20 Z " fill="#E3DFD3" transform="translate(1207,1396)"/>
<path d="M0 0 C0 3 0 3 -1.55651855 4.9172821 C-2.28487915 5.63898087 -3.01323975 6.36067963 -3.76367188 7.10424805 C-4.58452271 7.92487228 -5.40537354 8.74549652 -6.25109863 9.59098816 C-7.14792358 10.47232925 -8.04474854 11.35367035 -8.96875 12.26171875 C-9.87878784 13.16751175 -10.78882568 14.07330475 -11.72644043 15.00654602 C-14.14641371 17.41506262 -16.57526051 19.81443515 -19.00604248 22.21203613 C-21.48469348 24.66000399 -23.954878 27.11648202 -26.42578125 29.57226562 C-31.27558499 34.38989076 -36.13481275 39.19791214 -41 44 C-41 40.45595664 -40.39010515 39.89732095 -38.125 37.3125 C-37.59132813 36.68988281 -37.05765625 36.06726562 -36.5078125 35.42578125 C-35 34 -35 34 -33 34 C-32.773125 33.4225 -32.54625 32.845 -32.3125 32.25 C-30.66216522 29.42085466 -28.56741423 28.01725404 -26 26 C-24.64613064 24.34997172 -23.31321858 22.6825613 -22 21 C-18.27711184 17.16549085 -14.37892004 13.54328703 -10.4375 9.9375 C-6.88868624 6.68881449 -3.37025651 3.4361784 0 0 Z " fill="#E4E0D6" transform="translate(1254,1464)"/>
<path d="M0 0 C-0.3125 1.9375 -0.3125 1.9375 -1 4 C-1.99 4.33 -2.98 4.66 -4 5 C-4.67010087 6.3316107 -5.3362002 7.66523708 -6 9 C-8.0234375 10.96484375 -8.0234375 10.96484375 -10.375 12.9375 C-12.95681834 15.15637902 -15.11658689 17.14573361 -17.25 19.8125 C-19.25137198 22.31421498 -21.11311901 23.63253006 -24 25 C-24.66 24.67 -25.32 24.34 -26 24 C-22.62501264 20.57568181 -19.24358951 17.15790288 -15.85595703 13.74609375 C-14.70375906 12.58382014 -13.55336008 11.41976033 -12.40478516 10.25390625 C-10.75629586 8.58123721 -9.10150495 6.91503765 -7.4453125 5.25 C-6.6733403 4.46254395 -6.6733403 4.46254395 -5.88577271 3.65917969 C-2.22774341 0 -2.22774341 0 0 0 Z " fill="#CAC8BA" transform="translate(543,833)"/>
<path d="M0 0 C0.66 0 1.32 0 2 0 C0.43904931 3.73806611 -1.87429146 6.13242541 -4.71875 8.984375 C-6.11673828 10.38623047 -6.11673828 10.38623047 -7.54296875 11.81640625 C-8.02813965 12.2973877 -8.51331055 12.77836914 -9.01318359 13.27392578 C-10.50206339 14.75204848 -11.97991651 16.24059911 -13.45703125 17.73046875 C-14.38902344 18.65988281 -15.32101562 19.58929687 -16.28125 20.546875 C-17.13783203 21.40120117 -17.99441406 22.25552734 -18.87695312 23.13574219 C-21 25 -21 25 -23 25 C-23 24.34 -23 23.68 -23 23 C-22.34 23 -21.68 23 -21 23 C-20.72800781 22.41476562 -20.45601562 21.82953125 -20.17578125 21.2265625 C-17.30553957 15.79122111 -13.85567622 12.00766042 -8 10 C-7.67 9.01 -7.34 8.02 -7 7 C-5.37550757 5.29220027 -3.70779973 3.62449243 -2 2 C-1.34 1.34 -0.68 0.68 0 0 Z " fill="#E2DED3" transform="translate(1319,1398)"/>
<path d="M0 0 C0 3 0 3 -1 6 C-2.5234375 7.2109375 -2.5234375 7.2109375 -4.375 8.375 C-7.593039 10.5509449 -9.10892893 12.57806188 -11 16 C-14.4137931 19 -14.4137931 19 -17 19 C-17.28875 19.61875 -17.5775 20.2375 -17.875 20.875 C-19 23 -19 23 -21 25 C-21.99 24.67 -22.98 24.34 -24 24 C-16.08 16.08 -8.16 8.16 0 0 Z " fill="#C8C4B8" transform="translate(1537,1062)"/>
<path d="M0 0 C0.66 0.33 1.32 0.66 2 1 C1.39671875 1.59167969 0.7934375 2.18335938 0.171875 2.79296875 C-4.68241005 7.55324431 -4.68241005 7.55324431 -9.125 12.6875 C-11.26967586 15.33260023 -13.66128493 17.35287827 -16.26953125 19.52734375 C-18.65125694 21.55422995 -20.81841151 23.76100129 -23 26 C-24.66666667 27.66666667 -26.33333333 29.33333333 -28 31 C-28.66 30.67 -29.32 30.34 -30 30 C-20.1 20.1 -10.2 10.2 0 0 Z " fill="#E4E1D3" transform="translate(517,858)"/>
<path d="M0 0 C0 3 0 3 -1.8359375 5.17651367 C-2.67382812 5.99869385 -3.51171875 6.82087402 -4.375 7.66796875 C-5.27734375 8.56064453 -6.1796875 9.45332031 -7.109375 10.37304688 C-8.0727573 11.31136157 -9.03630108 12.2495105 -10 13.1875 C-10.96422346 14.13667769 -11.92777392 15.08653956 -12.890625 16.03710938 C-15.25386746 18.36490319 -17.62381482 20.68543133 -20 23 C-20 19.25983417 -19.0658409 18.54723807 -16.625 15.8125 C-15.68527344 14.73935547 -15.68527344 14.73935547 -14.7265625 13.64453125 C-13 12 -13 12 -11 12 C-10.67 11.01 -10.34 10.02 -10 9 C-8.3603279 7.63360658 -6.68889872 6.3050581 -5 5 C-3.31471312 3.35216394 -1.64302953 1.68997323 0 0 Z " fill="#E3DFD5" transform="translate(1294,1424)"/>
<path d="M0 0 C0.66 0.99 1.32 1.98 2 3 C-2.56630734 7.87072783 -7.74976539 11.89156398 -13 16 C-13.66 15.67 -14.32 15.34 -15 15 C-10.05 10.05 -5.1 5.1 0 0 Z " fill="#CAC6BA" transform="translate(689,1164)"/>
<path d="M0 0 C1 2 1 2 0.80859375 3.89453125 C-0.24187216 6.62980239 -1.69747548 7.82013779 -3.9375 9.6875 C-4.64777344 10.28949219 -5.35804687 10.89148437 -6.08984375 11.51171875 C-8 13 -8 13 -10 14 C-10.33 13.01 -10.66 12.02 -11 11 C-7.37 7.37 -3.74 3.74 0 0 Z M-11 14 C-10.67 14.66 -10.34 15.32 -10 16 C-10.66 15.67 -11.32 15.34 -12 15 C-11.67 14.67 -11.34 14.34 -11 14 Z " fill="#C9C5BA" transform="translate(1216,1150)"/>
<path d="M0 0 C0 3 0 3 -1.56054688 4.90112305 C-2.27275391 5.59761963 -2.98496094 6.29411621 -3.71875 7.01171875 C-4.48574219 7.76904297 -5.25273438 8.52636719 -6.04296875 9.30664062 C-6.85378906 10.09232422 -7.66460938 10.87800781 -8.5 11.6875 C-9.31082031 12.48478516 -10.12164063 13.28207031 -10.95703125 14.10351562 C-12.96482203 16.0758748 -14.9792687 18.04091492 -17 20 C-17.33 19.01 -17.66 18.02 -18 17 C-17.0925 16.278125 -16.185 15.55625 -15.25 14.8125 C-12.42071949 12.46028787 -10.25775015 9.913226 -8 7 C-5.41649107 4.29046625 -3.11856984 2.07904656 0 0 Z " fill="#E4DFD4" transform="translate(1005,483)"/>
<path d="M0 0 C0 3.63787651 -0.67888836 4.13064655 -3.0625 6.75 C-3.69414063 7.44609375 -4.32578125 8.1421875 -4.9765625 8.859375 C-7.9198308 11.97310285 -10.92869131 15.01270887 -14 18 C-14.99 17.67 -15.98 17.34 -17 17 C-11.33333333 11.33333333 -5.66666667 5.66666667 0 0 Z " fill="#BFBBAF" transform="translate(1512,1087)"/>
<path d="M0 0 C0 4.99704606 -4.13797826 8.09377202 -7.4375 11.5625 C-10.19661239 14.18702154 -13.04740922 16.59672844 -16 19 C-16.66 18.67 -17.32 18.34 -18 18 C-12.06 12.06 -6.12 6.12 0 0 Z " fill="#C8C4B9" transform="translate(1352,767)"/>
<path d="M0 0 C0.33 0.66 0.66 1.32 1 2 C-1.57979931 6.20411739 -4.07832134 9.03224317 -8 12 C-8.33 12.66 -8.66 13.32 -9 14 C-11.4375 15.6875 -11.4375 15.6875 -14 17 C-14.66 16.67 -15.32 16.34 -16 16 C-10.72 10.72 -5.44 5.44 0 0 Z " fill="#C9C5BB" transform="translate(1068,1535)"/>
<path d="M0 0 C0.66 0.33 1.32 0.66 2 1 C0.38989473 5.07376031 -2.53822271 7.76507069 -5.625 10.75 C-6.140625 11.25660156 -6.65625 11.76320313 -7.1875 12.28515625 C-8.45383339 13.52803902 -9.7263144 14.76465276 -11 16 C-11.66 15.67 -12.32 15.34 -13 15 C-11.95125002 12.37812506 -11.35068687 11.20628639 -8.875 9.75 C-8.25625 9.5025 -7.6375 9.255 -7 9 C-7 8.34 -7 7.68 -7 7 C-6.38125 6.9175 -5.7625 6.835 -5.125 6.75 C-2.83911206 6.19416524 -2.83911206 6.19416524 -1.8125 4.0625 C-1.544375 3.381875 -1.27625 2.70125 -1 2 C-0.67 1.34 -0.34 0.68 0 0 Z " fill="#D3D0C5" transform="translate(644,846)"/>
<path d="M0 0 C0.33 0.66 0.66 1.32 1 2 C-0.23684973 5.38396526 -2.15459166 7.26811787 -4.875 9.5625 C-5.55304687 10.14128906 -6.23109375 10.72007813 -6.9296875 11.31640625 C-8.91651825 12.93211201 -10.93937141 14.4799399 -13 16 C-12.42308522 12.83145253 -11.58353113 11.21773541 -9.27734375 8.984375 C-8.73916016 8.45585938 -8.20097656 7.92734375 -7.64648438 7.3828125 C-7.08251953 6.84398437 -6.51855469 6.30515625 -5.9375 5.75 C-5.36966797 5.19570312 -4.80183594 4.64140625 -4.21679688 4.0703125 C-2.81787531 2.70665786 -1.40980886 1.35239583 0 0 Z " fill="#D2CEC0" transform="translate(716,1137)"/>
<path d="M0 0 C0.33 0.66 0.66 1.32 1 2 C-0.10281127 3.27200971 -1.20730769 4.54255853 -2.3125 5.8125 C-2.92738281 6.52019531 -3.54226563 7.22789063 -4.17578125 7.95703125 C-6.9175932 11.02762579 -9.66207288 13.58288036 -13 16 C-13.66 15.67 -14.32 15.34 -15 15 C-10.05 10.05 -5.1 5.1 0 0 Z " fill="#D8D5C7" transform="translate(744,1367)"/>
<path d="M0 0 C0.99 0.33 1.98 0.66 3 1 C2.04882866 2.1725131 1.08882991 3.33787015 0.125 4.5 C-0.67550781 5.47453125 -0.67550781 5.47453125 -1.4921875 6.46875 C-1.98976563 6.9740625 -2.48734375 7.479375 -3 8 C-3.66 8 -4.32 8 -5 8 C-5 8.66 -5 9.32 -5 10 C-7.375 11.6875 -7.375 11.6875 -10 13 C-10.66 12.67 -11.32 12.34 -12 12 C-8.04 8.04 -4.08 4.08 0 0 Z " fill="#D5D0C5" transform="translate(1100,1503)"/>
<path d="M0 0 C0 4.61516791 -2.89387247 6.85930598 -6 10.0625 C-6.66 10.701875 -7.32 11.34125 -8 12 C-8.7425 12.7425 -9.485 13.485 -10.25 14.25 C-10.8275 14.8275 -11.405 15.405 -12 16 C-12.99 15.67 -13.98 15.34 -15 15 C-10.05 10.05 -5.1 5.1 0 0 Z " fill="#D0CEC2" transform="translate(588,786)"/>
<path d="M0 0 C0.99 0.33 1.98 0.66 3 1 C-1.33333333 5.33333333 -5.66666667 9.66666667 -10 14 C-10 10 -10 10 -7.8125 7.421875 C-6.884375 6.54015625 -5.95625 5.6584375 -5 4.75 C-4.071875 3.85796875 -3.14375 2.9659375 -2.1875 2.046875 C-1.465625 1.37140625 -0.74375 0.6959375 0 0 Z " fill="#CCCABC" transform="translate(932,669)"/>
<path d="M0 0 C0 4.46259056 -1.41390288 6.31886011 -4.3125 9.6875 C-7.05671399 12.04880041 -8.45757955 12.69636396 -12 13 C-8.19524578 8.43969176 -4.25030379 4.14910608 0 0 Z " fill="#CCCABC" transform="translate(947,654)"/>
<path d="M0 0 C0 3 0 3 -2 6 C-2.66 6 -3.32 6 -4 6 C-4.28875 6.598125 -4.5775 7.19625 -4.875 7.8125 C-6 10 -6 10 -8 13 C-9.32 12.67 -10.64 12.34 -12 12 C-8.04 8.04 -4.08 4.08 0 0 Z " fill="#D8D4C8" transform="translate(1374,745)"/>
<path d="M0 0 C0.33 0.66 0.66 1.32 1 2 C-2.19169462 5.86363032 -5.45689741 9.45689741 -9 13 C-9.99 12.67 -10.98 12.34 -12 12 C-8.04 8.04 -4.08 4.08 0 0 Z " fill="#C8C5B9" transform="translate(784,588)"/>
<path d="M0 0 C0.66 0 1.32 0 2 0 C0.46356148 3.68069887 -1.78150945 5.98775204 -4.625 8.75 C-5.85089844 9.94882812 -5.85089844 9.94882812 -7.1015625 11.171875 C-7.72804688 11.77515625 -8.35453125 12.3784375 -9 13 C-9.33 12.01 -9.66 11.02 -10 10 C-8.625 8.5 -8.625 8.5 -7 7 C-6.34 7 -5.68 7 -5 7 C-4.67 6.01 -4.34 5.02 -4 4 C-3.34 4 -2.68 4 -2 4 C-1.34 2.68 -0.68 1.36 0 0 Z " fill="#D7D3C9" transform="translate(606,885)"/>
<path d="M0 0 C0.33 0.66 0.66 1.32 1 2 C-0.5039544 4.79305817 -2.24016054 7.36024081 -4 10 C-6.625 10.1875 -6.625 10.1875 -9 10 C-8.06409496 8.8944811 -7.12620142 7.79064547 -6.1875 6.6875 C-5.66542969 6.07261719 -5.14335938 5.45773437 -4.60546875 4.82421875 C-3.12827531 3.14575321 -1.59960869 1.56117966 0 0 Z " fill="#CAC7BC" transform="translate(781,819)"/>
<path d="M0 0 C0 1.66666667 0 3.33333333 0 5 C-1.61457079 6.43581474 -3.29219075 7.80144783 -5 9.125 C-5.928125 9.84945313 -6.85625 10.57390625 -7.8125 11.3203125 C-8.534375 11.87460937 -9.25625 12.42890625 -10 13 C-10.66 12.67 -11.32 12.34 -12 12 C-8.04 8.04 -4.08 4.08 0 0 Z " fill="#D3CFC5" transform="translate(940,431)"/>
<path d="M0 0 C0.99 0.33 1.98 0.66 3 1 C-2.94 6.445 -2.94 6.445 -9 12 C-9.66 11.67 -10.32 11.34 -11 11 C-7.37 7.37 -3.74 3.74 0 0 Z " fill="#C2BEB3" transform="translate(390,985)"/>
<path d="M0 0 C0.99 0.33 1.98 0.66 3 1 C1.78070272 2.30098717 0.54907548 3.59042437 -0.6875 4.875 C-1.37199219 5.59429688 -2.05648438 6.31359375 -2.76171875 7.0546875 C-5.09591291 9.08335887 -7.08467634 10.02992733 -10 11 C-8.38405168 8.95880212 -6.7143618 6.95927063 -5 5 C-4.34 5 -3.68 5 -3 5 C-2.690625 4.360625 -2.38125 3.72125 -2.0625 3.0625 C-1 1 -1 1 0 0 Z " fill="#C2C0B3" transform="translate(374,1001)"/>
<path d="M0 0 C0 4.65280387 -2.50916389 6.49774909 -5.6875 9.75 C-6.450625 10.4925 -7.21375 11.235 -8 12 C-8.99 11.67 -9.98 11.34 -11 11 C-7.37 7.37 -3.74 3.74 0 0 Z " fill="#CCC8BD" transform="translate(1083,1520)"/>
<path d="M0 0 C0 3 0 3 -1.8125 4.875 C-2.534375 5.57625 -3.25625 6.2775 -4 7 C-4.515625 7.9075 -5.03125 8.815 -5.5625 9.75 C-6.036875 10.4925 -6.51125 11.235 -7 12 C-7.99 12 -8.98 12 -10 12 C-8.52278578 8.54798361 -6.56205999 6.35038064 -3.875 3.75 C-3.15054688 3.04359375 -2.42609375 2.3371875 -1.6796875 1.609375 C-1.12539063 1.07828125 -0.57109375 0.5471875 0 0 Z " fill="#C2BFB3" transform="translate(759,613)"/>
<path d="M0 0 C0 3.69942045 -0.85819127 4.40155392 -3.25 7.125 C-3.85328125 7.82882812 -4.4565625 8.53265625 -5.078125 9.2578125 C-7.10469267 11.09490433 -8.32969429 11.6100881 -11 12 C-7.49102731 7.81576108 -3.91939465 3.80411834 0 0 Z " fill="#D0CCC1" transform="translate(1057,1311)"/>
<path d="M0 0 C0 4.09089094 -1.69866948 5.44918487 -4.33203125 8.4140625 C-6.36890116 10.35075848 -8.29054445 11.28279118 -11 12 C-7.49102731 7.81576108 -3.91939465 3.80411834 0 0 Z " fill="#B3B0A6" transform="translate(1284,1081)"/>
<path d="M0 0 C0 3.39593478 -0.52165948 4.06619881 -2.5 6.6875 C-2.9640625 7.31011719 -3.428125 7.93273438 -3.90625 8.57421875 C-4.2671875 9.04472656 -4.628125 9.51523438 -5 10 C-6.32 9.67 -7.64 9.34 -9 9 C-6.03 6.03 -3.06 3.06 0 0 Z " fill="#D4CFC3" transform="translate(1561,1038)"/>
<path d="M0 0 C0 3.59857954 -0.95830515 5.09451118 -3 8 C-3.66 8 -4.32 8 -5 8 C-5.33 8.66 -5.66 9.32 -6 10 C-6.99 9.67 -7.98 9.34 -9 9 C-6.03 6.03 -3.06 3.06 0 0 Z " fill="#CBC6BB" transform="translate(921,450)"/>
<path d="M0 0 C0.99 0.33 1.98 0.66 3 1 C2.01 2.485 2.01 2.485 1 4 C0.34 4 -0.32 4 -1 4 C-1 4.66 -1 5.32 -1 6 C-2.98 6.66 -4.96 7.32 -7 8 C-6.02133662 6.85373678 -5.04205413 5.70800212 -4.0625 4.5625 C-3.51722656 3.92441406 -2.97195313 3.28632812 -2.41015625 2.62890625 C-1.63204305 1.73008851 -0.84063472 0.84063472 0 0 Z " fill="#C8C5B8" transform="translate(1032,1336)"/>
<path d="M0 0 C0 3.58912412 -0.66436554 4.10857029 -3 6.6875 C-3.556875 7.31011719 -4.11375 7.93273438 -4.6875 8.57421875 C-5.120625 9.04472656 -5.55375 9.51523438 -6 10 C-6.99 9.67 -7.98 9.34 -9 9 C-6.03 6.03 -3.06 3.06 0 0 Z " fill="#C2C0B5" transform="translate(1121,1246)"/>
<path d="M0 0 C0 3.58912412 -0.66436554 4.10857029 -3 6.6875 C-3.556875 7.31011719 -4.11375 7.93273437 -4.6875 8.57421875 C-5.120625 9.04472656 -5.55375 9.51523437 -6 10 C-6.99 9.67 -7.98 9.34 -9 9 C-6.03 6.03 -3.06 3.06 0 0 Z " fill="#CBC8BC" transform="translate(565,809)"/>
<path d="M0 0 C0 3.49889647 -0.54120332 4.0553603 -2.75 6.625 C-3.26046875 7.23601563 -3.7709375 7.84703125 -4.296875 8.4765625 C-6.19607419 10.17538747 -7.51275949 10.5998787 -10 11 C-6.79239749 7.19364503 -3.59253891 3.45436433 0 0 Z " fill="#C2BFB3" transform="translate(1320,799)"/>
<path d="M0 0 C-1.36983503 3.16115776 -1.9890638 3.9927092 -5 6 C-5.33 5.01 -5.66 4.02 -6 3 C-3.375 0 -3.375 0 0 0 Z M-6 6 C-5.67 6.66 -5.34 7.32 -5 8 C-5.66 7.67 -6.32 7.34 -7 7 C-6.67 6.67 -6.34 6.34 -6 6 Z " fill="#D1CFBF" transform="translate(1211,1158)"/>
<path d="M0 0 C-1.5830577 4.2742558 -4.50568404 6.26531794 -8 9 C-8.66 8.67 -9.32 8.34 -10 8 C-8.71451591 6.66070495 -7.42141845 5.32871357 -6.125 4 C-5.04605469 2.88625 -5.04605469 2.88625 -3.9453125 1.75 C-2 0 -2 0 0 0 Z " fill="#CFCBC0" transform="translate(1551,1050)"/>
<path d="M0 0 C0.99 0.33 1.98 0.66 3 1 C0.69 3.31 -1.62 5.62 -4 8 C-4.99 7.67 -5.98 7.34 -7 7 C-4.66666667 4.66666667 -2.33333333 2.33333333 0 0 Z " fill="#C9C4B9" transform="translate(1502,1097)"/>
<path d="M0 0 C0.33 1.32 0.66 2.64 1 4 C-1.3125 6.0625 -1.3125 6.0625 -4 8 C-4.99 7.67 -5.98 7.34 -7 7 C-4.69 4.69 -2.38 2.38 0 0 Z " fill="#D0CDC0" transform="translate(961,640)"/>
<path d="M0 0 C0.33 0.66 0.66 1.32 1 2 C-0.13474948 5.40424844 -0.96811304 6.21653709 -4 8 C-4.99 7.67 -5.98 7.34 -7 7 C-4.69 4.69 -2.38 2.38 0 0 Z " fill="#C3BFB4" transform="translate(1051,1552)"/>
<path d="M0 0 C0.66 0 1.32 0 2 0 C0.55922954 3.36179774 -1.24750021 5.59156268 -4 8 C-4.66 8 -5.32 8 -6 8 C-6 7.34 -6 6.68 -6 6 C-5.34 6 -4.68 6 -4 6 C-3.71125 5.38125 -3.4225 4.7625 -3.125 4.125 C-2 2 -2 2 0 0 Z " fill="#E3DFD4" transform="translate(1270,1447)"/>
<path d="M0 0 C0.33 0.99 0.66 1.98 1 3 C-0.65 4.65 -2.3 6.3 -4 8 C-4.99 7.67 -5.98 7.34 -7 7 C-4.69 4.69 -2.38 2.38 0 0 Z " fill="#CCC8BB" transform="translate(724,1129)"/>
<path d="M0 0 C0.33 0.66 0.66 1.32 1 2 C-0.98 4.97 -0.98 4.97 -3 8 C-4.32 7.67 -5.64 7.34 -7 7 C-4.69 4.69 -2.38 2.38 0 0 Z " fill="#C6C4B8" transform="translate(1297,1068)"/>
<path d="M0 0 C-0.1875 1.8125 -0.1875 1.8125 -1 4 C-3.4375 5.8125 -3.4375 5.8125 -6 7 C-6.66 6.67 -7.32 6.34 -8 6 C-7.0479279 4.99403703 -6.08812654 3.99538437 -5.125 3 C-4.59132813 2.443125 -4.05765625 1.88625 -3.5078125 1.3125 C-2 0 -2 0 0 0 Z " fill="#C2BFB5" transform="translate(525,851)"/>
<path d="M0 0 C0.99 0.33 1.98 0.66 3 1 C-0.96 4.465 -0.96 4.465 -5 8 C-5.66 7.67 -6.32 7.34 -7 7 C-4.69 4.69 -2.38 2.38 0 0 Z " fill="#D6D4C6" transform="translate(617,757)"/>
<path d="M0 0 C0.99 0.33 1.98 0.66 3 1 C-0.465 3.97 -0.465 3.97 -4 7 C-4.66 6.67 -5.32 6.34 -6 6 C-4.02 4.02 -2.04 2.04 0 0 Z " fill="#D2CEC2" transform="translate(743,1110)"/>
<path d="M0 0 C0.66 0.33 1.32 0.66 2 1 C0.50902342 4.7952131 -1.75700849 6.61042731 -5 9 C-5 8.01 -5 7.02 -5 6 C-4.34 6 -3.68 6 -3 6 C-2.690625 5.38125 -2.38125 4.7625 -2.0625 4.125 C-1.375 2.75 -0.6875 1.375 0 0 Z " fill="#CDC9BE" transform="translate(644,846)"/>
<path d="M0 0 C-0.1875 1.8125 -0.1875 1.8125 -1 4 C-3.5625 5.75 -3.5625 5.75 -6 7 C-5.37162381 3.35541809 -4.14650034 0 0 0 Z " fill="#D1CEC2" transform="translate(543,833)"/>
<path d="M0 0 C0.99 0.33 1.98 0.66 3 1 C-0.465 3.97 -0.465 3.97 -4 7 C-4.66 6.67 -5.32 6.34 -6 6 C-4.02 4.02 -2.04 2.04 0 0 Z " fill="#C2BFB3" transform="translate(899,472)"/>
<path d="M0 0 C2 1 2 1 2 1 Z M-1 1 C-1 5.38968456 -3.12805101 6.76905739 -6 10 C-6.33 9.01 -6.66 8.02 -7 7 C-5.02 5.02 -3.04 3.04 -1 1 Z " fill="#E3DFD4" transform="translate(999,372)"/>
<path d="M0 0 C0 3 0 3 -1 6 C-4.0625 7.1875 -4.0625 7.1875 -7 8 C-6.02133662 6.85373678 -5.04205413 5.70800212 -4.0625 4.5625 C-3.51722656 3.92441406 -2.97195313 3.28632812 -2.41015625 2.62890625 C-1.63204305 1.73008851 -0.84063472 0.84063472 0 0 Z " fill="#C3BEB3" transform="translate(660,1193)"/>
<path d="M0 0 C1 2 1 2 0.4375 4 C-1.57302108 6.79724672 -3.74418077 7.15065585 -7 8 C-6.02133662 6.85373678 -5.04205413 5.70800212 -4.0625 4.5625 C-3.51722656 3.92441406 -2.97195313 3.28632812 -2.41015625 2.62890625 C-1.63204305 1.73008851 -0.84063472 0.84063472 0 0 Z " fill="#C9C5B8" transform="translate(716,1137)"/>
<path d="M0 0 C0.99 0.33 1.98 0.66 3 1 C-0.465 3.97 -0.465 3.97 -4 7 C-4.66 6.67 -5.32 6.34 -6 6 C-4.02 4.02 -2.04 2.04 0 0 Z " fill="#D1CEC3" transform="translate(759,1094)"/>
<path d="M0 0 C0 3.90838866 -1.50567876 5.11594107 -4 8 C-4.99 7.67 -5.98 7.34 -7 7 C-4.69 4.69 -2.38 2.38 0 0 Z " fill="#CDCABE" transform="translate(425,950)"/>
<path d="M0 0 C0.99 0.33 1.98 0.66 3 1 C1.68 2.65 0.36 4.3 -1 6 C-2.32 5.67 -3.64 5.34 -5 5 C-3.35 3.35 -1.7 1.7 0 0 Z " fill="#D4D1C5" transform="translate(445,930)"/>
<path d="M0 0 C0 3.16880694 -0.2058242 4.43689172 -2 7 C-4.625 7.75 -4.625 7.75 -7 8 C-6.02133662 6.85373678 -5.04205413 5.70800212 -4.0625 4.5625 C-3.51722656 3.92441406 -2.97195313 3.28632812 -2.41015625 2.62890625 C-1.63204305 1.73008851 -0.84063472 0.84063472 0 0 Z " fill="#C7C4B7" transform="translate(793,807)"/>
<path d="M0 0 C0 3.90838866 -1.50567876 5.11594107 -4 8 C-4.99 7.67 -5.98 7.34 -7 7 C-4.69 4.69 -2.38 2.38 0 0 Z " fill="#CBC7BA" transform="translate(801,799)"/>
<path d="M0 0 C0.99 0.33 1.98 0.66 3 1 C1.35 2.65 -0.3 4.3 -2 6 C-2.99 5.67 -3.98 5.34 -5 5 C-3.35 3.35 -1.7 1.7 0 0 Z " fill="#C5C1B5" transform="translate(1326,793)"/>
<path d="M0 0 C0.33 0.66 0.66 1.32 1 2 C-1.47812494 5.45167403 -2.79606135 7.23163306 -7 8 C-6.02133662 6.85373678 -5.04205413 5.70800212 -4.0625 4.5625 C-3.51722656 3.92441406 -2.97195313 3.28632812 -2.41015625 2.62890625 C-1.63204305 1.73008851 -0.84063472 0.84063472 0 0 Z " fill="#D2CFC3" transform="translate(819,553)"/>
<path d="M0 0 C0 3 0 3 -1 6 C-4.0625 7.1875 -4.0625 7.1875 -7 8 C-6.02133662 6.85373678 -5.04205413 5.70800212 -4.0625 4.5625 C-3.51722656 3.92441406 -2.97195313 3.28632812 -2.41015625 2.62890625 C-1.63204305 1.73008851 -0.84063472 0.84063472 0 0 Z " fill="#D2CFC2" transform="translate(736,1375)"/>
<path d="M0 0 C0.99 0.33 1.98 0.66 3 1 C1.35 2.65 -0.3 4.3 -2 6 C-2.33 5.01 -2.66 4.02 -3 3 C-2.01 2.01 -1.02 1.02 0 0 Z " fill="#CBC9BA" transform="translate(823,1287)"/>
<path d="M0 0 C0 3.90838866 -1.50567876 5.11594107 -4 8 C-4.99 7.67 -5.98 7.34 -7 7 C-4.69 4.69 -2.38 2.38 0 0 Z " fill="#D1CFC2" transform="translate(455,920)"/>
<path d="M0 0 C0.99 0 1.98 0 3 0 C5.1875 2.5 5.1875 2.5 7 5 C6.01 5.33 5.02 5.66 4 6 C2.62437146 4.71034824 1.29233607 3.37310707 0 2 C0 1.34 0 0.68 0 0 Z " fill="#CEC9BE" transform="translate(1414,858)"/>
<path d="M0 0 C3.36720387 1.39332574 4.9859524 2.9789286 7 6 C4 6 4 6 1.8125 4.125 C0 2 0 2 0 0 Z " fill="#D0CCBF" transform="translate(1228,782)"/>
<path d="M0 0 C0 4.38968456 -2.12805101 5.76905739 -5 9 C-5.33 8.01 -5.66 7.02 -6 6 C-4.02 4.02 -2.04 2.04 0 0 Z " fill="#CFCCC1" transform="translate(1352,767)"/>
<path d="M0 0 C0.66 0.66 1.32 1.32 2 2 C-0.64 3.98 -3.28 5.96 -6 8 C-4.21844267 4.43688534 -2.83236991 2.64354525 0 0 Z " fill="#E3DFD2" transform="translate(730,643)"/>
<path d="M0 0 C-1.15173355 2.46800047 -2.04783565 4.04783565 -4 6 C-4.99 5.67 -5.98 5.34 -7 5 C-2.25 0 -2.25 0 0 0 Z " fill="#BEBBAF" transform="translate(1043,1562)"/>
<path d="M0 0 C0.99 0.33 1.98 0.66 3 1 C0.03 3.475 0.03 3.475 -3 6 C-3.66 5.67 -4.32 5.34 -5 5 C-3.35 3.35 -1.7 1.7 0 0 Z " fill="#CDCABE" transform="translate(1131,1236)"/>
<path d="M0 0 C0.66 0 1.32 0 2 0 C0.60667426 3.36720387 -0.9789286 4.9859524 -4 7 C-4 6.01 -4 5.02 -4 4 C-3.34 4 -2.68 4 -2 4 C-1.34 2.68 -0.68 1.36 0 0 Z " fill="#CFCBC0" transform="translate(1618,1097)"/>
<path d="M0 0 C0.66 0.33 1.32 0.66 2 1 C-0.31 3.31 -2.62 5.62 -5 8 C-5 5 -5 5 -2.5 2.3125 C-1.675 1.549375 -0.85 0.78625 0 0 Z " fill="#E5E0D5" transform="translate(502,990)"/>
<path d="M0 0 C0 3 0 3 -2.5 5.6875 C-3.325 6.450625 -4.15 7.21375 -5 8 C-5.66 7.67 -6.32 7.34 -7 7 C-4.69 4.69 -2.38 2.38 0 0 Z " fill="#D1CDC2" transform="translate(1374,745)"/>
</svg>
