<svg
  xmlns="http://www.w3.org/2000/svg"
  width="1600"
  height="512"
  viewBox="0 0 1600 512"
  role="img"
  aria-labelledby="orgxLogoDarkTitle"
>
  <title id="orgxLogoDarkTitle">OrgX Logo on Dark Backgrounds</title>
  <image href="orgx-logo.png" width="512" height="512" />
  <g fill="#E0E0E0" transform="translate(560 375) scale(0.42 -0.42)">
    <path d="M42.8399658203125 354Q42.8399658203125 467.55999755859375 83.5999755859375 551.5599975585938Q124.3599853515625 635.5599975585938 201.10000610351562 680.7799987792969Q277.84002685546875 726 382.6800537109375 726Q488.080078125 726 564.8200988769531 680.7799987792969Q641.5601196289062 635.5599975585938 682.3201293945312 551.5599975585938Q723.0801391601562 467.55999755859375 723.0801391601562 354Q723.0801391601562 240.44000244140625 682.3201293945312 156.94000244140625Q641.5601196289062 73.44000244140625 564.8200988769531 28.720001220703125Q488.080078125 -16 382.6800537109375 -16Q277.84002685546875 -16 201.10000610351562 28.720001220703125Q124.3599853515625 73.44000244140625 83.5999755859375 156.94000244140625Q42.8399658203125 240.44000244140625 42.8399658203125 354ZM584.2398681640625 354Q584.2398681640625 433.75994873046875 560.1998901367188 491.2799072265625Q536.159912109375 548.7998657226562 490.8599548339844 579.33984375Q445.55999755859375 609.8798217773438 382.6800537109375 609.8798217773438Q319.80010986328125 609.8798217773438 274.7801513671875 579.33984375Q229.76019287109375 548.7998657226562 205.72021484375 491.2799072265625Q181.68023681640625 433.75994873046875 181.68023681640625 354Q181.68023681640625 274.6800537109375 205.72021484375 217.44009399414062Q229.76019287109375 160.20013427734375 274.7801513671875 130.16015625Q319.80010986328125 100.12017822265625 382.6800537109375 100.12017822265625Q445.55999755859375 100.12017822265625 490.8599548339844 130.16015625Q536.159912109375 160.20013427734375 560.1998901367188 217.44009399414062Q584.2398681640625 274.6800537109375 584.2398681640625 354Z" transform="translate(0 0)" />
    <path d="M69.43994140625 534.4000244140625H193.6002197265625L198.480224609375 384.5599365234375L187.8402099609375 387.11993408203125Q200.04022216796875 464.239990234375 233.04022216796875 499.32000732421875Q266.04022216796875 534.4000244140625 324.3602294921875 534.4000244140625H373.72021484375V421.83984375H324.04022216796875Q281.8402099609375 421.83984375 255.12020874023438 409.7598571777344Q228.40020751953125 397.67987060546875 215.12020874023438 372.19989013671875Q201.8402099609375 346.71990966796875 201.8402099609375 306.35992431640625V0H69.43994140625Z" transform="translate(736 0)" />
    <path d="M56.719970703125 -10.6400146484375 193.1202392578125 -1.1199951171875Q203.04022216796875 -32.75994873046875 227.88018798828125 -48.139923095703125Q252.72015380859375 -63.5198974609375 301.60009765625 -63.5198974609375Q360.96002197265625 -63.5198974609375 391.6999816894531 -36.71990966796875Q422.43994140625 -9.919921875 422.43994140625 45.4400634765625V110.75994873046875Q402.87994384765625 71.8399658203125 361.1599426269531 48.819976806640625Q319.43994140625 25.79998779296875 267.43994140625 25.79998779296875Q201.3199462890625 25.79998779296875 149.91995239257812 58.079986572265625Q98.51995849609375 90.3599853515625 69.67996215820312 149.29998779296875Q40.8399658203125 208.239990234375 40.8399658203125 285.44000244140625Q40.8399658203125 361.32000732421875 69.39996337890625 420.70001220703125Q97.9599609375 480.08001708984375 149.01995849609375 513.2400207519531Q200.0799560546875 546.4000244140625 265.199951171875 546.4000244140625Q322.0799560546875 546.4000244140625 363.93994140625 521.0600280761719Q405.7999267578125 495.72003173828125 426.43994140625 451.280029296875V534.4000244140625H555.72021484375V48.320068359375Q555.72021484375 -53.47998046875 487.12017822265625 -107.739990234375Q418.5201416015625 -162 301.60009765625 -162Q231.96002197265625 -162 181.27999877929688 -143.22000122070312Q130.5999755859375 -124.44000244140625 99.81997680664062 -90.54000854492188Q69.03997802734375 -56.6400146484375 56.719970703125 -10.6400146484375ZM423.3199462890625 286.32000732421875Q423.87994384765625 335.03997802734375 408.89996337890625 370.63995361328125Q393.91998291015625 406.23992919921875 365.8000183105469 425.3199157714844Q337.6800537109375 444.39990234375 300.04010009765625 444.39990234375Q242.920166015625 444.39990234375 210.30020141601562 401.73992919921875Q177.68023681640625 359.0799560546875 177.68023681640625 286.32000732421875Q177.68023681640625 213.56005859375 210.80020141601562 170.90008544921875Q243.920166015625 128.2401123046875 300.04010009765625 128.2401123046875Q337.12005615234375 128.2401123046875 364.96002197265625 147.10009765625Q392.79998779296875 165.9600830078125 408.0599670410156 201.78005981445312Q423.3199462890625 237.60003662109375 423.3199462890625 286.32000732421875Z" transform="translate(1121 0)" />
    <path d="M267.0400390625 356 29.8800048828125 710H186.4403076171875L349.440185546875 458.3201904296875L508.6800537109375 710H665.0003662109375L428.28033447265625 358L668.120361328125 0H511.56005859375L347.440185546875 255.6798095703125L184.2003173828125 0H27.8800048828125Z" transform="translate(1716 0)" />
  </g>
</svg>
