<svg xmlns="http://www.w3.org/2000/svg" width="1600" height="900" viewBox="0 0 1600 900" role="img" aria-labelledby="title desc">
  <title id="title">Alma clinical workflow continuity map</title>
  <desc id="desc">A high-contrast system diagram showing clinical intake branching into reassessment, documentation, audit, and consent workflows before returning to an accountable outcome.</desc>
  <rect width="1600" height="900" fill="#080806"/>
  <g opacity=".18" stroke="#f2efe4" stroke-width="1">
    <path d="M0 112H1600M0 224H1600M0 336H1600M0 448H1600M0 560H1600M0 672H1600M0 784H1600"/>
    <path d="M200 0V900M400 0V900M600 0V900M800 0V900M1000 0V900M1200 0V900M1400 0V900"/>
  </g>
  <g fill="none" stroke-linecap="round" stroke-linejoin="round">
    <path d="M95 450H365" stroke="#c7ff36" stroke-width="8"/>
    <path d="M365 450C505 450 470 210 650 210H820" stroke="#f2efe4" stroke-width="5"/>
    <path d="M365 450H820" stroke="#f2efe4" stroke-width="5"/>
    <path d="M365 450C505 450 470 690 650 690H820" stroke="#f2efe4" stroke-width="5"/>
    <path d="M820 210C1020 210 940 450 1140 450" stroke="#f2efe4" stroke-width="5"/>
    <path d="M820 450H1140" stroke="#f2efe4" stroke-width="5"/>
    <path d="M820 690C1020 690 940 450 1140 450" stroke="#f2efe4" stroke-width="5"/>
    <path d="M1140 450H1505" stroke="#c7ff36" stroke-width="8"/>
  </g>
  <g fill="#080806" stroke="#f2efe4" stroke-width="4">
    <circle cx="365" cy="450" r="28"/>
    <rect x="640" y="155" width="190" height="110" rx="4"/>
    <rect x="640" y="395" width="190" height="110" rx="4"/>
    <rect x="640" y="635" width="190" height="110" rx="4"/>
    <path d="M1140 382 1210 450 1140 518 1070 450Z"/>
  </g>
  <g fill="#ff5738">
    <rect x="622" y="187" width="12" height="46"/>
    <rect x="622" y="427" width="12" height="46"/>
    <rect x="622" y="667" width="12" height="46"/>
  </g>
  <g fill="#48c7ff">
    <rect x="839" y="189" width="8" height="42"/>
    <rect x="839" y="429" width="8" height="42"/>
    <rect x="839" y="669" width="8" height="42"/>
  </g>
  <g fill="#f2efe4" font-family="ui-monospace, SFMono-Regular, Menlo, monospace" font-size="22" letter-spacing="2">
    <text x="95" y="415">CLINICAL EVENT</text>
    <text x="664" y="202">REASSESS</text>
    <text x="664" y="442">DOCUMENT</text>
    <text x="664" y="682">CONSENT</text>
    <text x="1070" y="350">AUDIT GATE</text>
    <text x="1290" y="415">ACCOUNTABLE</text>
    <text x="1290" y="447">OUTCOME</text>
  </g>
  <g fill="#a6a39a" font-family="ui-monospace, SFMono-Regular, Menlo, monospace" font-size="15" letter-spacing="1.5">
    <text x="640" y="292">cadence · eligibility · backfill</text>
    <text x="640" y="532">notes · PDF · external audit</text>
    <text x="640" y="772">RBAC · rollout · provenance</text>
    <text x="95" y="492">privacy enters at the first boundary</text>
    <text x="1290" y="490">reversible · inspectable</text>
  </g>
</svg>
